<svg xmlns="http://www.w3.org/2000/svg" xml:space="preserve" stroke-linecap="round" stroke-linejoin="round"
  stroke-miterlimit="10" clip-rule="evenodd" viewBox="0 0 16 16">
  <path fill="#ef4242"
    d="m6.945 1.307-4.22 2.44C2.15 4.079 1.67 4.894 1.67 5.56v4.88c0 .66.48 1.481 1.055 1.813l4.22 2.44c.576.332 1.534.332 2.11 0l4.22-2.44c.576-.332 1.056-1.149 1.056-1.813V5.56c0-.66-.48-1.481-1.056-1.813l-4.22-2.44c-.576-.332-1.534-.332-2.11 0Zm.56 1.385a1.07 1.07 0 0 1 .99 0l2.703 1.582-.989.594L8 3.615 5.79 4.868l-.988-.594 2.703-1.582Zm5.144 2.374a.53.53 0 0 1 .264.461v5.078c-.008.346-.2.412-.495.593l-3.923 2.275c-.15.083-.324.134-.495.132a1.014 1.014 0 0 1-.495-.132l-3.923-2.275c-.296-.18-.486-.214-.495-.56v-5.11a.48.48 0 0 1 .264-.43.524.524 0 0 1 .528 0L8 7.605 12.121 5.1a.525.525 0 0 1 .528-.033ZM4.142 6.483V10.308l3.561 2.044.297.198.297-.198 3.56-2.044V6.483L8.265 8.66a.494.494 0 0 1-.528 0L4.142 6.483Z" />
</svg>
