<svg xmlns="http://www.w3.org/2000/svg" xml:space="preserve" stroke-linecap="round" stroke-linejoin="round"
  stroke-miterlimit="10" clip-rule="evenodd" viewBox="0 0 16 16">
  <g fill="#ffcb6b" fill-rule="evenodd">
    <path fill-opacity=".667"
      d="M7.996 14.593a6.549 6.549 0 0 1-6.589-6.589c0-3.679 2.91-6.597 6.589-6.597 3.687 0 6.597 2.918 6.597 6.597a6.55 6.55 0 0 1-6.597 6.589Zm0-1.388c2.926 0 5.226-2.3 5.226-5.2 0-2.919-2.3-5.21-5.226-5.21-2.918 0-5.218 2.3-5.218 5.21 0 2.9 2.3 5.2 5.218 5.2Z" />
    <path
      d="M11.296 7.115h-1.69c-.135-.649-.702-1.048-1.458-1.048-1.016 0-1.637.723-1.637 1.92 0 1.223.621 1.946 1.637 1.946.792 0 1.323-.366 1.458-.998h1.69c-.17 1.464-1.376 2.361-3.157 2.361-2.122 0-3.436-1.271-3.436-3.309 0-2.011 1.323-3.284 3.427-3.284 1.745 0 2.996.948 3.166 2.412Z" />
  </g>
</svg>
