<?xml version="1.0" encoding="UTF-8" standalone="no"?>
<!DOCTYPE svg PUBLIC "-//W3C//DTD SVG 1.1//EN" "http://www.w3.org/Graphics/SVG/1.1/DTD/svg11.dtd">
<!-- Created with Vectornator (http://vectornator.io/) -->
<svg height="100%" stroke-miterlimit="10" style="fill-rule:nonzero;clip-rule:evenodd;stroke-linecap:round;stroke-linejoin:round;" version="1.1" viewBox="0 0 79 78" width="100%" xml:space="preserve" xmlns="http://www.w3.org/2000/svg" xmlns:xlink="http://www.w3.org/1999/xlink">
<defs/>
<g id="Untitled">
<g opacity="1">
<path d="M69.7218 41.0002C69.7218 57.6909 56.1913 71.2214 39.5006 71.2214C22.8099 71.2214 9.27942 57.6909 9.27942 41.0002C9.27943 24.3095 22.8099 10.779 39.5006 10.779C56.1913 10.779 69.7218 24.3095 69.7218 41.0002" fill="#000000" fill-opacity="0" fill-rule="nonzero" opacity="1" stroke="#e53935" stroke-linecap="square" stroke-linejoin="miter" stroke-width="3.96674"/>
<path d="M68.6683 54.5301L10.332 54.5301L39.4996 12.4239L68.6683 54.5301Z" fill="#000000" fill-opacity="0" fill-rule="nonzero" opacity="1" stroke="#e53935" stroke-linecap="square" stroke-linejoin="miter" stroke-width="4.03339"/>
<path d="M28.2203 29.5973L52.905 29.5973L52.905 54.2819L28.2203 54.2819L28.2203 29.5973Z" fill="#000000" fill-opacity="0" fill-rule="nonzero" opacity="1" stroke="#e53935" stroke-linecap="square" stroke-linejoin="miter" stroke-width="3.41765"/>
<path d="M51.0148 41.409C51.0148 47.1816 46.3352 51.8612 40.5626 51.8612C34.7901 51.8612 30.1105 47.1816 30.1105 41.409C30.1105 35.6365 34.7901 30.9569 40.5626 30.9569C46.3352 30.9569 51.0148 35.6365 51.0148 41.409" fill="#000000" fill-opacity="0" fill-rule="nonzero" opacity="1" stroke="#e53935" stroke-linecap="square" stroke-linejoin="miter" stroke-width="3.206"/>
</g>
</g>
</svg>
