<svg xmlns="http://www.w3.org/2000/svg" fill="none" viewBox="0 0 16 16">
  <path fill="#E64343" fill-rule="evenodd" d="M3.745 4.745c0-.5523.4477-1 1-1h4.9851c.5523 0 1.0001.4477 1.0001 1v1.2652a2.1448 2.1448 0 0 1 .875-.1856c.3112 0 .6072.0663.8752.1856V3c0-.5523-.4477-1-1-1H3c-.5523 0-1 .4477-1 1v8.48c0 .5523.4477 1 1 1h4.7631V9.244c0-.488.393-.8871.8732-.8871h.3489V6.3624a.8725.8725 0 0 0-1.745 0v3.3675c0 .5523-.4477 1-1 1H4.745c-.5523 0-1-.4477-1-1v-4.985Z" clip-rule="evenodd"/>
  <path fill="#E0AF00" fill-rule="evenodd" d="M13.5699 9.463h-.3275v-.6654c0-.918-.7335-1.6632-1.6372-1.6632-.9038 0-1.6373.7451-1.6373 1.6632v.6653h-.3274c-.3602 0-.655.2994-.655.6653v3.3265c0 .3659.2948.6653.655.6653h3.9294c.3602 0 .6549-.2994.6549-.6653v-3.3265c0-.3659-.2947-.6653-.6549-.6653Zm-1.9647 2.9937c-.3602 0-.6549-.2993-.6549-.6652 0-.366.2947-.6653.6549-.6653s.6549.2993.6549.6653c0 .3659-.2947.6652-.6549.6652Zm-1.0151-3.659v.6652h2.0302v-.6653c0-.5688-.4552-1.0312-1.0151-1.0312-.56 0-1.0151.4624-1.0151 1.0312Z" clip-rule="evenodd"/>
</svg>
