<svg xmlns="http://www.w3.org/2000/svg" xml:space="preserve" stroke-linecap="round" stroke-linejoin="round" stroke-miterlimit="10" clip-rule="evenodd" viewBox="0 0 32 32">
  <path fill="#00a8e6" d="M23.827 8.243a4.424 4.424 0 0 1 2.223 1.281c.33.345.616.729.852 1.143.011.045-1.534 1.083-2.471 1.662-.034.023-.169-.124-.322-.35a2.014 2.014 0 0 0-1.67-1c-1.077-.074-1.771.49-1.766 1.433a1.3 1.3 0 0 0 .153.666c.237.49.677.784 2.059 1.383 2.544 1.1 3.636 1.817 4.31 2.843a5.158 5.158 0 0 1 .416 4.333 4.764 4.764 0 0 1-3.932 2.815c-.9.103-1.81.094-2.708-.028a6.53 6.53 0 0 1-3.616-1.884 6.277 6.277 0 0 1-.926-1.371c.104-.077.213-.147.327-.208.158-.09.756-.434 1.32-.761l1.024-.6.214.312c.36.515.82.954 1.35 1.292a3.3 3.3 0 0 0 3.458-.175c.536-.523.62-1.355.2-1.974-.276-.4-.84-.727-2.443-1.422a8.8 8.8 0 0 1-3.349-2.055 4.687 4.687 0 0 1-.976-1.777 7.116 7.116 0 0 1-.062-2.268 4.332 4.332 0 0 1 3.644-3.374 9 9 0 0 1 2.691.084Zm-8.343 1.483.011 1.454h-4.63v13.148H7.6V11.183H2.97V9.755c-.012-.489.001-.978.04-1.466.017-.023 2.832-.034 6.245-.028l6.211.017.018 1.448Z"/>
  <path fill="#ade9ff" d="m28.47 26.59.424-.42c1.955.063 1.986 0 2.072-.207l.537-1.308.04-.125-.044-.108c-.023-.057-.095-.233-1.316-1.397v-.612c1.41-1.358 1.38-1.428 1.3-1.63l-.536-1.323c-.08-.198-.116-.275-2.052-.222l-.424-.427a9.477 9.477 0 0 0-.066-1.93l-.055-.122-1.397-.612c-.206-.094-.278-.128-1.597 1.309l-.593-.01c-1.358-1.449-1.422-1.423-1.63-1.34l-1.298.526c-.203.082-.274.116-.196 2.083l-.42.418c-1.955-.064-1.979 0-2.07.206l-.537 1.305-.042.126.044.11c.023.055.091.225 1.316 1.396v.612c-1.41 1.357-1.379 1.427-1.298 1.63l.534 1.323c.081.203.116.275 2.052.223l.423.44a9.507 9.507 0 0 0 .064 1.925l.055.125 1.406.614c.205.085.275.117 1.59-1.315l.593.007c1.36 1.451 1.43 1.423 1.63 1.343l1.295-.524c.205-.087.276-.119.197-2.09Zm-5.573-3.064a2.328 2.328 0 1 1 3.048 1.327 2.355 2.355 0 0 1-3.048-1.327Z"/>
</svg>
