<svg xmlns="http://www.w3.org/2000/svg" viewBox="0 0 512 512">
  <path fill="#b7bbd4"
    d="M164.829 104.131c0 14.333 6.902 27.063 17.56 35.052-45.186 6.935-96.015 41.194-107.808 71.018-16.24-8.803-36.182.601-36.182 16.069-.425 14.673 22.101 27.742 40.072 13.294 4.375 5.574 10.738 10.345 18.431 14.2-.19 6.429-.272 24.973 2.391 28.428 3.486 4.524 41.381 4.167 42.955.073.874-2.274 1.415-12.091 1.748-17.403 12.281.498 24.88-.589 36.69-3.464-2.079 4.646-3.757 12.478-2.35 21.53-39.666 26.458-61.735 82.861-21.642 131.948-24.912 8.81-49.096 21.431-48.18 37.043 35.738-.745 165.347 0 165.347 0 7.927 0 15.456-1.035 22.542-2.975 324.424-42.016-3.187-293.059 177.204-369.5-209.46 37.691 78.333 300.065-137.983 338.706 53.858-47.011 35.382-190.598-53.005-255.115 22.846-3.994 40.236-23.948 40.236-47.934.679-35.046-41.968-67.177-79.523-37.613-24.079-31.9-76.949-18.172-78.503 26.643Z" />
</svg>
