<svg xmlns="http://www.w3.org/2000/svg" fill="none" viewBox="0 0 16 16">
  <path fill="#E69770" fill-rule="evenodd"
    d="M2 4c0-1.1046.8954-2 2-2h8c1.1046 0 2 .8954 2 2v8c0 1.1046-.8954 2-2 2H4c-1.1046 0-2-.8954-2-2V4Zm3 0h1v1H5V4Zm6 0h-1v3h1V4ZM4 7.5c0 .6531.4174 1.2087 1 1.4146V12h1V8.9146c.5826-.2059 1-.7615 1-1.4146C7 6.6716 6.3284 6 5.5 6S4 6.6716 4 7.5Zm6 3.4146c-.5826-.2059-1-.7615-1-1.4146 0-.8284.6716-1.5 1.5-1.5s1.5.6716 1.5 1.5c0 .6531-.4174 1.2087-1 1.4146V12h-1v-1.0854Z"
    clip-rule="evenodd" />
</svg>
