<svg xmlns="http://www.w3.org/2000/svg" fill="none" viewBox="0 0 16 16">
  <g fill-rule="evenodd" clip-rule="evenodd">
    <path fill="#0EC2E6"
      d="M7.9962 14C4.6557 14 2 11.3443 2 8.0038 2 4.6557 4.648 2 7.9962 2 11.3519 2 14 4.6557 14 8.0038 14 11.3443 11.3443 14 7.9962 14Zm0-1.2631c2.6633 0 4.7559-2.0926 4.7559-4.733 0-2.6558-2.0926-4.7408-4.7559-4.7408-2.6557 0-4.7483 2.0926-4.7483 4.7407 0 2.6405 2.0926 4.7331 4.7483 4.7331Z" />
    <path fill="#FFCB6B"
      d="M11 7.1942H9.4611c-.1228-.5902-.6385-.9533-1.326-.9533-.925 0-1.4898.6582-1.4898 1.7477 0 1.1123.5648 1.7706 1.4898 1.7706.7203 0 1.2032-.333 1.326-.908H11C10.8445 10.1829 9.7476 11 8.1269 11 6.195 11 5 9.8424 5 7.9886 5 6.1577 6.2033 5 8.1187 5c1.588 0 2.7258.8625 2.8813 2.1942Z" />
  </g>
</svg>
