<svg xmlns="http://www.w3.org/2000/svg" viewBox="0 0 16 16">
  <defs>
    <linearGradient id="a" x1="48" x2="53.96" y1="-32.55" y2="-38.53" gradientTransform="matrix(1 0 0 -1 -44.94 -29.47)"
      gradientUnits="userSpaceOnUse">
      <stop offset="0" stop-color="#387eb8" />
      <stop offset="1" stop-color="#366994" />
    </linearGradient>
    <linearGradient id="b" x1="51.66" x2="58.07" y1="-36.36" y2="-42.49"
      gradientTransform="matrix(1 0 0 -1 -44.94 -29.47)" gradientUnits="userSpaceOnUse">
      <stop offset="0" stop-color="#ffe052" />
      <stop offset="1" stop-color="#ffc331" />
    </linearGradient>
  </defs>
  <path fill="url(#a)"
    d="M7.91 2C4.85 2 5 3.33 5 3.33V4.7h3v.42H3.89s-2-.23-2 2.86 1.71 3 1.71 3h1V9.53a1.62 1.62 0 0 1 1.74-1.71h2.9a1.55 1.55 0 0 0 1.63-1.57V3.6S11.11 2 7.91 2Zm-1.61.93a.52.52 0 0 1 .53.52.53.53 0 0 1-.53.55.52.52 0 0 1-.52-.53.52.52 0 0 1 .52-.54Z" />
  <path fill="url(#b)"
    d="M8 14c3.06 0 2.87-1.33 2.87-1.33V11.3H8v-.42h4s2 .23 2-2.86-1.71-3-1.71-3h-1v1.45a1.63 1.63 0 0 1-1.71 1.71h-2.9a1.55 1.55 0 0 0-1.63 1.57v2.65S4.8 14 8 14Zm1.61-.93a.52.52 0 0 1-.52-.52.52.52 0 0 1 .52-.55.53.53 0 0 1 .53.53.52.52 0 0 1-.53.54Z" />
</svg>
