<svg xmlns="http://www.w3.org/2000/svg" fill="none" viewBox="0 0 16 16">
  <path fill="#46C5C5" fill-rule="evenodd" d="M8.7071 2.0503c-.3905-.3906-1.0237-.3906-1.4142 0L6.343 3H5c-.5523 0-1 .4477-1 1v1.3431l-.9497.9498c-.3906.3905-.3906 1.0237 0 1.4142L4 8.657V10c0 .5523.4477 1 1 1h1v4l2-2 2 2v-4h1c.5523 0 1-.4477 1-1V8.6569l.9497-.9498c.3906-.3905.3906-1.0237 0-1.4142L12 5.3431V4c0-.5523-.4477-1-1-1H9.6569l-.9498-.9497ZM8 9c1.1046 0 2-.8954 2-2s-.8954-2-2-2-2 .8954-2 2 .8954 2 2 2Z" clip-rule="evenodd"/>
</svg>
