<svg xmlns="http://www.w3.org/2000/svg" fill="none" viewBox="0 0 16 16">
  <circle cx="8" cy="8" r="1" fill="#00A8E6AA" />
  <path stroke="#00A8E6"
    d="M14.5 8c0 .2451-.1138.5205-.406.8165-.2943.2982-.7449.5897-1.3412.8453C11.5619 10.172 9.8819 10.5 8 10.5s-3.562-.3279-4.7528-.8383c-.5963-.2555-1.047-.547-1.3412-.8452C1.6138 8.5205 1.5 8.2451 1.5 8c0-.2451.1138-.5205.406-.8165.2943-.2982.7449-.5897 1.3412-.8453C4.4381 5.828 6.1181 5.5 8 5.5s3.5619.3279 4.7528.8383c.5963.2555 1.0469.547 1.3412.8452.2922.296.406.5714.406.8165Z" />
  <path stroke="#00A8E6"
    d="M11.25 13.6292c-.2123.1225-.5076.1616-.9101.0566-.4054-.1057-.8831-.3502-1.4026-.7389-1.0375-.7761-2.1614-2.0671-3.1024-3.6969-.941-1.6298-1.497-3.2487-1.6504-4.5352-.0768-.6442-.0497-1.1802.0614-1.5841.1103-.401.2918-.6373.5041-.7599.2123-.1225.5076-.1616.9101-.0566.4054.1057.8831.3502 1.4026.7389 1.0374.7761 2.1614 2.0671 3.1024 3.6969.9409 1.6298 1.497 3.2487 1.6504 4.5352.0768.6442.0497 1.1802-.0614 1.5841-.1103.4011-.2918.6373-.5041.7599Z" />
  <path stroke="#00A8E6"
    d="M4.75 13.6292c-.2123-.1226-.3938-.3588-.5041-.7599-.1111-.4039-.1382-.9399-.0614-1.5841.1534-1.2865.7095-2.9054 1.6504-4.5352.941-1.6298 2.065-2.9208 3.1024-3.697.5195-.3886.9972-.633 1.4026-.7388.4025-.105.6978-.066.9101.0566.2123.1226.3938.3588.5041.7599.1111.404.1382.94.0614 1.5841-.1534 1.2865-.7095 2.9054-1.6504 4.5352-.941 1.6298-2.065 2.9208-3.1024 3.6969-.5195.3887-.9972.6332-1.4026.7389-.4025.105-.6978.0659-.9101-.0566Z" />
</svg>
