<svg xmlns="http://www.w3.org/2000/svg" fill="none" viewBox="0 0 16 16">
  <path fill="#8EB320" d="M4.1865 12.1265c-.6133-.046-1.1308-.1878-1.5525-.4255-.4217-.2377-.7667-.5405-1.035-.9085l.828-.7935c.2607.3143.5367.5597.828.736.2913.1687.621.2722.989.3105V8.412l-.2645-.046c-.3833-.069-.7092-.1725-.9775-.3105s-.4868-.3067-.6555-.506c-.1687-.1993-.2913-.4178-.368-.6555-.0767-.2453-.115-.506-.115-.782 0-.6517.2032-1.1692.6095-1.5525.4063-.391.9775-.6248 1.7135-.7015V2.6735h.966V3.858c.506.0537.943.1802 1.311.3795s.6862.4715.9545.8165l-.8395.759c-.184-.2377-.3987-.4293-.644-.575-.2377-.1457-.5175-.2377-.8395-.276V7.4l.3105.046c.3833.069.7092.1725.9775.3105s.4868.3067.6555.506c.1763.1917.3028.4102.3795.6555.0767.2453.115.506.115.782 0 .6593-.207 1.1998-.621 1.6215-.4063.4217-.9928.6785-1.7595.7705v1.2075h-.966v-1.173Zm-1.104-6.049c0 .322.0882.575.2645.759.184.1763.483.3105.897.4025v-2.3c-.7743.092-1.1615.4715-1.1615 1.1385Zm3.2315 3.68c0-.345-.0958-.6057-.2875-.782-.184-.184-.4945-.3182-.9315-.4025v2.461c.3987-.0613.7015-.1993.9085-.414.207-.2147.3105-.5022.3105-.8625Zm2.376 4.301v-1.081h5.52v1.081H8.69Z"/>
</svg>
