<svg xmlns="http://www.w3.org/2000/svg" viewBox="0 0 256 256">
  <path fill="#88CC7E"
    d="M123.4564 129.9754a507.171 507.171 0 0 0-3.5405 7.8454c-4.4055 9.9813-9.2842 22.127-11.0663 29.9078-.6402 2.7713-1.0366 6.2056-1.029 10.0136 0 1.506.0806 3.089.2086 4.7013a58.1065 58.1065 0 0 0 19.9806 3.5595 58.209 58.209 0 0 0 18.2895-2.981c-1.3515-1.2357-2.6414-2.5531-3.8155-4.0374-7.7961-9.9414-12.1456-24.5112-19.0274-49.0092M94.6715 80.586C79.7821 91.0794 70.039 108.3863 70.002 128c.037 19.3204 9.4872 36.4035 24.002 46.9406 3.5603-14.8306 12.485-28.4102 25.8684-55.6302a218.927 218.927 0 0 0-2.7144-7.0838c-3.7074-9.3003-9.0585-20.101-13.8338-24.992-2.4347-2.5551-5.389-4.763-8.6526-6.6486" />
  <path fill="#7cb342"
    d="M178.5317 194.535c-7.6823-.9626-14.0225-2.1244-19.569-4.081a69.407 69.407 0 0 1-30.9586 7.2488c-38.491 0-69.6935-31.1976-69.6982-69.7001 0-20.891 9.2036-39.6188 23.7638-52.3913-3.8942-.9408-7.9554-1.49-12.1038-1.4824-20.45.1926-42.0373 11.5102-51.0246 42.0752-.8403 4.4491-.6402 7.8132-.6402 11.8004 0 60.5904 49.1201 109.7144 109.705 109.7144 37.1044 0 69.8821-18.4366 89.7318-46.6334-10.7362 2.6755-21.0608 3.955-29.902 3.9825-3.3139 0-6.4247-.1774-9.3051-.5292" />
  <path fill="#29b6f6"
    d="M157.9223 173.2713c.6772.3357 2.2127.8839 4.3495 1.49 14.3754-10.5532 23.7174-27.552 23.7544-46.7643h-.0057c-.054-32.0294-25.9737-57.9453-58.0107-58.0088a58.1501 58.1501 0 0 0-18.2127 2.961c11.7786 13.426 17.4426 32.6127 22.9217 53.6005.0028.0095.0075.017.0094.0247.0105.017 1.7527 5.828 4.744 13.5378 2.9706 7.6994 7.2025 17.2311 11.8175 24.1774 3.0303 4.655 6.363 8 8.6326 8.9817" />
  <path fill="#1e88e5"
    d="M128.0089 18.2893c-36.746 0-69.2506 18.0894-89.16 45.8262 10.3615-6.4892 20.9413-8.8299 30.1742-8.7464 12.7526.037 22.7785 3.991 27.589 6.6959a50.5276 50.5276 0 0 1 3.345 2.1311 69.409 69.409 0 0 1 28.049-5.8945c38.4957.0048 69.7029 31.2024 69.7086 69.6982h-.0057c0 19.4087-7.9384 36.9575-20.7356 49.5944 3.1412.3519 6.4911.571 9.912.5539 12.1504.0057 25.2833-2.6755 35.129-10.9563 6.42-5.408 11.7985-13.3264 14.7813-25.1988.5833-4.5857.919-9.2472.919-13.9913 0-60.5876-49.1154-109.7143-109.7049-109.7143" />
</svg>
