<svg xmlns="http://www.w3.org/2000/svg" data-name="Calque 1" viewBox="0 0 16 16">
  <path fill="#34cbce"
    d="M6.16 8.88H4.53c-.22 0-.25-.12-.19-.28.14-.32.29-.64.45-1A.22.22 0 0 1 5 7.51h2.66a.14.14 0 0 0 .16-.12 3.8 3.8 0 0 1 2.89-2.46 3.13 3.13 0 0 1 3.45 1.52l.08.15a3.3 3.3 0 0 1-.21 3 4.09 4.09 0 0 1-1.82 1.57 3.2 3.2 0 0 1-4.47-1.81c-.88 1.89-3.5 2.83-5.2 1.45C.54 9.24 1.6 6 3.74 5.1A3 3 0 0 1 8 6.51s0 .08 0 .09c-.51.18-1 .26-1.54.43-.23 0-.34-.26-.52-.36a1.77 1.77 0 0 0-2.63 1.44 1.49 1.49 0 0 0 2.85.77Zm5.18-2.44c-1.83-.07-2.79 2.82-.77 3.33s3.22-3.12.77-3.33Z" />
</svg>
