<svg stroke-miterlimit="10" viewBox="0 0 32 32" xmlns="http://www.w3.org/2000/svg" clip-rule="evenodd"
  stroke-linecap="round" stroke-linejoin="round">
  <clipPath id="prefix__a">
    <path d="M0 0h32v32H0z" />
  </clipPath>
  <g clip-path="url(#prefix__a)">
    <path
      d="M19.484 21.026h10.007a.5.5 0 01.5.5v1.957a.5.5 0 01-.5.5H19.484a.5.5 0 01-.5-.5v-1.957a.5.5 0 01.5-.5zm0 3.993h10.007a.5.5 0 01.5.5v1.957a.5.5 0 01-.5.5H19.484a.5.5 0 01-.5-.5v-1.957a.5.5 0 01.5-.5zm0 3.994h10.007a.5.5 0 01.5.5v1.956a.5.5 0 01-.5.5H19.484a.5.5 0 01-.5-.5v-1.957a.5.5 0 01.5-.5z"
      fill="#0ec2e6" />
    <path
      d="M15 4.031l-2 4s-7-.01-7 0c-1.173 0-2 .81-2 2v6H0l6 10h10.031V21a3 3 0 013-3h4.157L22 16.031H6v-6h8l2-4h12V18h2V6.031a2 2 0 00-2-2H15z"
      fill="#e5c07b" />
  </g>
</svg>
