<svg stroke-miterlimit="10" viewBox="0 0 32 32" xmlns="http://www.w3.org/2000/svg" clip-rule="evenodd"
  stroke-linecap="round" stroke-linejoin="round">
  <clipPath id="prefix__a">
    <path d="M0 0h32v32H0z" />
  </clipPath>
  <g clip-path="url(#prefix__a)">
    <path
      d="M28.679 26.404h-1.071v-1.07h1.07m-5.349 1.07h-1.07v-1.07h1.072m5.915-1.967l1.4-1.402a.549.549 0 000-.76.549.549 0 00-.759 0l-1.582 1.585a6.464 6.464 0 00-2.836-.664c-1.026 0-1.99.247-2.845.674l-1.595-1.595a.536.536 0 00-.91.38c0 .143.058.28.16.38l1.404 1.402c-1.595 1.177-2.632 3.037-2.632 5.177h12.838c0-2.14-1.071-4.012-2.643-5.177"
      fill="#88CC7E" />
    <path
      d="M15 4.031l-2 4s-7-.01-7 0c-1.173 0-2 .81-2 2v6H0l6 10h10.031V21a3 3 0 013-3h4.157L22 16.031H6v-6h8l2-4h12V18h2V6.031a2 2 0 00-2-2H15z"
      fill="#e5c07b" />
  </g>
</svg>
