<svg stroke-miterlimit="10" viewBox="0 0 32 32" xmlns="http://www.w3.org/2000/svg" clip-rule="evenodd"
  stroke-linecap="round" stroke-linejoin="round">
  <clipPath id="prefix__a">
    <path d="M0 0h32v32H0z" />
  </clipPath>
  <g clip-path="url(#prefix__a)">
    <path
      d="M15 4.031l-2 4s-7-.01-7 0c-1.173 0-2 .81-2 2v6H0l6 10h10.031V21a3 3 0 013-3h4.157L22 16.031H6v-6h8l2-4h12V18h2V6.031a2 2 0 00-2-2H15z"
      fill="#e5c07b" />
    <path d="M22.907 25.526a4.5 4.5 0 119 0 4.5 4.5 0 01-9 0z" fill="#e65c75" />
    <path
      d="M23.531 21.031a4.5 4.5 0 000 9c.365 0 .692-.105 1.032-.187-1.974-.477-3.47-2.193-3.47-4.313 0-2.12 1.496-3.836 3.47-4.312-.34-.082-.667-.188-1.032-.188z"
      fill="#b5485c" />
  </g>
</svg>
