<svg stroke-miterlimit="10" viewBox="0 0 32 32" xmlns="http://www.w3.org/2000/svg" clip-rule="evenodd"
  stroke-linecap="round" stroke-linejoin="round">
  <clipPath id="prefix__a">
    <path d="M0 0h32v32H0z" />
  </clipPath>
  <g clip-path="url(#prefix__a)">
    <path
      d="M25.286 30.012h-4.27v-1.055h4.27m2.747-4.934h-6.985v-1.037h6.985m.735-1.95h-8.54a1.21 1.21 0 00-1.22 1.208v8.461c0 .668.546 1.208 1.22 1.208h8.54c.674 0 1.22-.54 1.22-1.208v-8.46c.001-.668-.545-1.21-1.219-1.21zm-1.667 6.03H21V25.98h6.1"
      fill="#88CC7E" />
    <path
      d="M15 4.031l-2 4s-7-.01-7 0c-1.173 0-2 .81-2 2v6H0l6 10h10.031V21a3 3 0 013-3h4.157L22 16.031H6v-6h8l2-4h12V18h2V6.031a2 2 0 00-2-2H15z"
      fill="#e5c07b" />
  </g>
</svg>
