<svg stroke-miterlimit="10" viewBox="0 0 32 32" xmlns="http://www.w3.org/2000/svg" clip-rule="evenodd"
  stroke-linecap="round" stroke-linejoin="round">
  <clipPath id="prefix__a">
    <path d="M0 0h32v32H0z" />
  </clipPath>
  <g clip-path="url(#prefix__a)">
    <path d="M24.041 21.019h6.004a1 1 0 011 1v6.004a1 1 0 01-1 1h-6.004a1 1 0 01-1-1V22.02a1 1 0 011-1z"
      fill="#0ec2e6" />
    <path d="M20.063 21.031a1 1 0 00-1 1v6a1 1 0 001 1h1.968a1 1 0 01-1-1v-6a1 1 0 011-1h-1.968z" fill="#0ca1be" />
    <path
      d="M15 4.031L12.969 8S6 8.02 6 8.031c-1.172 0-2.031.81-2.031 2L4 24c0 1.194.821 2.031 2.031 2.031h10V21a3 3 0 013-3H30V6a1.987 1.987 0 00-.594-1.406A1.957 1.957 0 0028 4.03H15zm1 2h12V8H15l1-1.969z"
      fill="#e5c07b" />
  </g>
</svg>
