<svg stroke-miterlimit="10" viewBox="0 0 32 32" xmlns="http://www.w3.org/2000/svg" clip-rule="evenodd"
  stroke-linecap="round" stroke-linejoin="round">
  <clipPath id="prefix__a">
    <path d="M0 0h32v32H0z" />
  </clipPath>
  <g clip-path="url(#prefix__a)">
    <path
      d="M24.394 21.019h6.473c.595 0 1.078.483 1.078 1.078v6.473c0 .596-.483 1.078-1.078 1.078h-6.473a1.078 1.078 0 01-1.078-1.078v-6.473c0-.595.482-1.078 1.078-1.078z"
      fill="#0ec2e6" />
    <path
      d="M20.105 21.032c-.596 0-1.079.483-1.079 1.078v6.469c0 .595.483 1.078 1.079 1.078h2.122a1.078 1.078 0 01-1.078-1.078V22.11c0-.595.483-1.078 1.078-1.078h-2.122z"
      fill="#0ca1be" />
    <path
      d="M15 4.031l-2 4s-7-.01-7 0c-1.173 0-2 .81-2 2v6H0l6 10h10.031V21a3 3 0 013-3h4.157L22 16.031H6v-6h8l2-4h12V18h2V6.031a2 2 0 00-2-2H15z"
      fill="#e5c07b" />
  </g>
</svg>
