<svg xmlns="http://www.w3.org/2000/svg" xml:space="preserve" stroke-linecap="round" stroke-linejoin="round"
  stroke-miterlimit="10" clip-rule="evenodd" viewBox="0 0 32 32">
  <clipPath id="a">
    <path d="M0 0h32v32H0z" />
  </clipPath>
  <g clip-path="url(#a)">
    <path fill="#b7bbd4"
      d="M24.604 21.005a5.598 5.598 0 0 0-5.603 5.599 5.605 5.605 0 0 0 3.753 5.289c.294.073.25-.136.25-.278v-.97c-1.7.199-1.769-.926-1.882-1.113-.23-.393-.775-.494-.613-.681.387-.2.782.05 1.238.724.331.49.976.407 1.302.326a1.58 1.58 0 0 1 .435-.761c-1.76-.316-2.494-1.39-2.494-2.667 0-.62.204-1.189.605-1.648-.256-.758.024-1.406.061-1.503.727-.065 1.484.521 1.542.567a5.44 5.44 0 0 1 1.414-.17c.53 0 1.004.061 1.42.174.142-.108.843-.61 1.52-.55.035.097.308.73.068 1.478.406.46.612 1.035.612 1.656 0 1.28-.738 2.355-2.504 2.665.306.3.478.711.477 1.14v1.408c.01.112 0 .224.188.224a5.6 5.6 0 0 0-1.789-10.909Z" />
    <path fill="#e5c07b"
      d="m15 4.031-2 4s-7-.01-7 0c-1.173 0-2 .81-2 2v6H0l6 10h10.031V21a3 3 0 0 1 3-3h4.157L22 16.031H6v-6h8l2-4h12V18h2V6.031a2 2 0 0 0-2-2H15Z" />
  </g>
</svg>
