<svg stroke-miterlimit="10" viewBox="0 0 32 32" xmlns="http://www.w3.org/2000/svg" clip-rule="evenodd"
  stroke-linecap="round" stroke-linejoin="round">
  <clipPath id="prefix__a">
    <path d="M0 0h32v32H0z" />
  </clipPath>
  <g clip-path="url(#prefix__a)">
    <path
      d="M29.08 30.33c-.561.781-1.156 1.544-2.063 1.556-.905.02-1.196-.498-2.224-.498-1.034 0-1.352.486-2.211.517-.886.032-1.555-.832-2.123-1.594-1.156-1.557-2.042-4.424-.852-6.353a3.342 3.342 0 012.786-1.582c.865-.013 1.69.548 2.224.548.528 0 1.528-.674 2.576-.573.44.019 1.67.164 2.461 1.248-.06.038-1.467.806-1.453 2.4.02 1.904 1.791 2.54 1.812 2.547-.02.044-.284.908-.933 1.784m-3.861-10.084c.494-.523 1.312-.92 1.988-.945.088.737-.23 1.48-.703 2.01-.467.536-1.238.952-1.995.895-.101-.725.277-1.481.71-1.96z"
      fill="#B7BBD4" />
    <path
      d="M15 4.031L12.969 8S6 8.02 6 8.031c-1.172 0-2.031.81-2.031 2L4 24c0 1.194.821 2.031 2.031 2.031h10V21a3 3 0 013-3H30V6a1.987 1.987 0 00-.594-1.406A1.957 1.957 0 0028 4.03H15zm1 2h12V8H15l1-1.969z"
      fill="#e5c07b" />
  </g>
</svg>
