<svg stroke-miterlimit="10" viewBox="0 0 32 32" xmlns="http://www.w3.org/2000/svg" clip-rule="evenodd"
  stroke-linecap="round" stroke-linejoin="round">
  <path
    d="M15 4.031l-2 4s-7-.01-7 0c-1.173 0-2 .81-2 2v6H0l6 10h10.031V21a3 3 0 013-3h4.157L22 16.031H6v-6h8l2-4h12V18h2V6.031a2 2 0 00-2-2H15z"
    fill="#e5c07b" />
  <path
    d="M22.473 31.22c.25-.027.405-.07.465-.13a.308.308 0 00.088-.227v-7.39h-3.399c-.105 0-.184.036-.237.108-.052.073-.092.22-.118.445h-.237v-3.518h.237c.026.224.066.372.118.445.053.072.132.109.237.109h9.763c.105 0 .184-.037.237-.11.053-.072.092-.22.118-.444h.238v3.518h-.238c-.026-.224-.065-.372-.118-.445-.053-.072-.132-.108-.237-.108h-3.4v7.39c0 .093.03.168.09.228.059.059.214.102.464.128v.237h-4.07v-.237z"
    fill="#e65c75" />
</svg>
