<svg xmlns="http://www.w3.org/2000/svg" xml:space="preserve" stroke-linecap="round" stroke-linejoin="round" stroke-miterlimit="10" clip-rule="evenodd" viewBox="0 0 32 32">
  <clipPath id="a">
    <path d="M0 0h32v32H0z"/>
  </clipPath>
  <g clip-path="url(#a)">
    <path fill="#EC6337" stroke="#EC6337" stroke-linecap="butt" stroke-width=".5" d="M26.534 29.153v.02c-.904-.039-1.941-.396-2.639-1.093-.697-.698-1.054-1.491-1.093-2.414 0-.34-.057-.604-.15-.83-.058-.093-.358-.433-.415-.507a1.674 1.674 0 0 1-1.186.472c-.98 0-1.752-.772-1.752-1.752s.771-1.752 1.752-1.752c.64 0 1.205.36 1.507.868h5.75c.301-.51.867-.868 1.507-.868.98 0 1.75.762 1.75 1.742s-.772 1.752-1.753 1.752c-.659 0-1.205-.36-1.507-.867h-4.163c.264.45.376 1.016.396 1.752.019.45.189.848.546 1.205.357.338.753.527 1.205.547h.264c.302-.51.868-.868 1.508-.868.98 0 1.751.772 1.751 1.752s-.771 1.752-1.752 1.752c-.64 0-1.186-.36-1.526-.91Z"/>
    <path fill="#e5c07b" d="M15 4.031 12.969 8S6 8.02 6 8.031c-1.172 0-2.031.81-2.031 2L4 24c0 1.194.821 2.031 2.031 2.031h10V21a3 3 0 0 1 3-3H30V6a1.987 1.987 0 0 0-.594-1.406A1.957 1.957 0 0 0 28 4.03H15Zm1 2h12V8H15l1-1.969Z"/>
  </g>
</svg>
