<svg xmlns="http://www.w3.org/2000/svg" xml:space="preserve" stroke-linecap="round" stroke-linejoin="round" stroke-miterlimit="10" clip-rule="evenodd" viewBox="0 0 32 32">
  <clipPath id="a">
    <path d="M0 0h32v32H0z"/>
  </clipPath>
  <g clip-path="url(#a)">
    <path fill="#88cc7e" d="M19.046 23.362v6.194l4.883 2.372v-6.194l-4.883-2.372Zm5.469-3.292L19.7 22.408l4.814 2.338 4.813-2.338-4.813-2.338Zm.586 5.664v6.194l4.883-2.372v-6.194L25.1 25.734Z"/>
    <path fill="#e5c07b" d="M15 4.031 12.969 8S6 8.02 6 8.031c-1.172 0-2.031.81-2.031 2L4 24c0 1.194.821 2.031 2.031 2.031h10V21a3 3 0 0 1 3-3H30V6a1.987 1.987 0 0 0-.594-1.406A1.957 1.957 0 0 0 28 4.03H15Zm1 2h12V8H15l1-1.969Z"/>
  </g>
</svg>
