<svg stroke-miterlimit="10" viewBox="0 0 32 32" xmlns="http://www.w3.org/2000/svg" clip-rule="evenodd"
  stroke-linecap="round" stroke-linejoin="round">
  <clipPath id="prefix__a">
    <path d="M0 0h32v32H0z" />
  </clipPath>
  <g clip-path="url(#prefix__a)">
    <path
      d="M24.769 28.04a2.078 2.078 0 110-4.156 2.078 2.078 0 010 4.157m4.412-1.503c.023-.19.041-.38.041-.576 0-.195-.018-.392-.041-.593l1.253-.968a.3.3 0 00.07-.38l-1.187-2.055a.292.292 0 00-.362-.13l-1.478.593a4.308 4.308 0 00-1.004-.582l-.22-1.573a.3.3 0 00-.297-.25h-2.375a.3.3 0 00-.297.25l-.22 1.573a4.31 4.31 0 00-1.003.582l-1.479-.594a.292.292 0 00-.362.131l-1.188 2.055a.293.293 0 00.072.38l1.253.968a5.09 5.09 0 00-.042.593c0 .196.018.386.042.576l-1.253.986a.293.293 0 00-.072.38l1.188 2.055c.071.13.232.178.362.13l1.479-.6c.309.238.63.44 1.003.589l.22 1.573a.3.3 0 00.297.25h2.375a.3.3 0 00.297-.25l.22-1.573c.374-.155.695-.35 1.004-.588l1.478.6c.13.047.291 0 .362-.131l1.188-2.055a.3.3 0 00-.071-.38l-1.253-.986z"
      fill="#88cc7e" fill-rule="evenodd" />
    <path
      d="M15 4.031L12.969 8S6 8.02 6 8.031c-1.172 0-2.031.81-2.031 2L4 24c0 1.194.821 2.031 2.031 2.031h10V21a3 3 0 013-3H30V6a1.987 1.987 0 00-.594-1.406A1.957 1.957 0 0028 4.03H15zm1 2h12V8H15l1-1.969z"
      fill="#e5c07b" />
  </g>
</svg>
