<svg stroke-miterlimit="10" viewBox="0 0 32 32" xmlns="http://www.w3.org/2000/svg" clip-rule="evenodd"
  stroke-linecap="round" stroke-linejoin="round">
  <clipPath id="prefix__a">
    <path d="M0 0h32v32H0z" />
  </clipPath>
  <g clip-path="url(#prefix__a)">
    <path d="M24.041 21.019h6.004a1 1 0 011 1v6.004a1 1 0 01-1 1h-6.004a1 1 0 01-1-1V22.02a1 1 0 011-1z"
      fill="#0ec2e6" />
    <path d="M20.063 21.031a1 1 0 00-1 1v6a1 1 0 001 1h1.968a1 1 0 01-1-1v-6a1 1 0 011-1h-1.968z" fill="#0ca1be" />
    <path
      d="M15 4.031l-2 4s-7-.01-7 0c-1.173 0-2 .81-2 2v6H0l6 10h10.031V21a3 3 0 013-3h4.157L22 16.031H6v-6h8l2-4h12V18h2V6.031a2 2 0 00-2-2H15z"
      fill="#e5c07b" />
  </g>
</svg>
