<svg stroke-miterlimit="10" viewBox="0 0 32 32" xmlns="http://www.w3.org/2000/svg" clip-rule="evenodd" stroke-linecap="round" stroke-linejoin="round"><clipPath id="prefix__a"><path d="M0 0h32v32H0z"/></clipPath><g clip-path="url(#prefix__a)"><path d="M15 4.031l-2 4s-7-.01-7 0c-1.173 0-2 .81-2 2v6H0l6 10h10.031V21a3 3 0 013-3h4.157L22 16.031H6v-6h8l2-4h12V18h2V6.031a2 2 0 00-2-2H15z" fill="#e5c07b"/><path d="M24.291 29.816l-.846 1.026a.352.352 0 01-.564 0l-3.677-4.458a.559.559 0 010-.684l.846-1.026a.352.352 0 01.564 0l3.677 4.458a.559.559 0 010 .684zm-.833-8.573l.846 1.025a.559.559 0 010 .684l-3.677 4.458a.352.352 0 01-.564 0l-.846-1.026a.559.559 0 010-.683l3.677-4.458a.352.352 0 01.564 0zm3.24 1.025l.845-1.025a.352.352 0 01.564 0l3.677 4.458a.559.559 0 010 .683l-.846 1.026a.352.352 0 01-.564 0l-3.677-4.458a.559.559 0 010-.684zm.833 8.574l-.846-1.026a.559.559 0 010-.684l3.677-4.458a.352.352 0 01.564 0l.845 1.026a.559.559 0 010 .684l-3.676 4.458a.352.352 0 01-.564 0z" fill="#88cc7e"/></g></svg>
