<svg stroke-miterlimit="10" viewBox="0 0 32 32" xmlns="http://www.w3.org/2000/svg" clip-rule="evenodd"
  stroke-linecap="round" stroke-linejoin="round">
  <clipPath id="prefix__a">
    <path d="M0 0h32v32H0z" />
  </clipPath>
  <g clip-path="url(#prefix__a)">
    <path
      d="M19.43 21.015h3.186a.4.4 0 01.402.4v3.194a.4.4 0 01-.402.4h-3.185a.4.4 0 01-.402-.4v-3.194c0-.22.18-.4.402-.4zm6.011.002h3.185c.223 0 .403.18.403.4v3.194a.4.4 0 01-.403.4h-3.185a.4.4 0 01-.402-.4v-3.194c0-.22.18-.4.402-.4zm-6.04 6.01h3.186c.222 0 .402.178.402.399v3.194c0 .22-.18.4-.402.4h-3.185a.401.401 0 01-.402-.4v-3.194c0-.22.18-.4.402-.4zm6.037-.015h3.185a.4.4 0 01.403.4v3.193a.4.4 0 01-.403.4h-3.185a.4.4 0 01-.402-.4v-3.194c0-.22.18-.4.402-.4z"
      fill="#bf98e6" />
    <path
      d="M15 4.031l-2 4s-7-.01-7 0c-1.173 0-2 .81-2 2v6H0l6 10h10.031V21a3 3 0 013-3h4.157L22 16.031H6v-6h8l2-4h12V18h2V6.031a2 2 0 00-2-2H15z"
      fill="#e5c07b" />
  </g>
</svg>
