<svg stroke-miterlimit="10" viewBox="0 0 32 32" xmlns="http://www.w3.org/2000/svg" clip-rule="evenodd"
  stroke-linecap="round" stroke-linejoin="round">
  <clipPath id="prefix__a">
    <path d="M0 0h32v32H0z" />
  </clipPath>
  <g clip-path="url(#prefix__a)">
    <path
      d="M19.01 21.002v5.92l2.089-2.09 2.09 2.438c.696.696.696 1.392.696 1.392v3.184l2.785.01v-3.89s0-.697-.369-1.393c-.37-.696-1.024-1.393-1.024-1.393L23.188 22.8l1.741-1.797m4.527 0l-3.106 3.113.32.369s.648.696 1.024 1.393c.146.278.23.55.278.787l3.573-3.573"
      fill="#88cc7e" fill-rule="evenodd" />
    <path
      d="M15 4.031l-2 4s-7-.01-7 0c-1.173 0-2 .81-2 2v6H0l6 10h10.031V21a3 3 0 013-3h4.157L22 16.031H6v-6h8l2-4h12V18h2V6.031a2 2 0 00-2-2H15z"
      fill="#e5c07b" />
  </g>
</svg>
