<svg xmlns="http://www.w3.org/2000/svg" xml:space="preserve" stroke-linecap="round" stroke-linejoin="round" stroke-miterlimit="10" clip-rule="evenodd" viewBox="0 0 32 32">
  <clipPath id="a">
    <path d="M0 0h32v32H0z"/>
  </clipPath>
  <g clip-path="url(#a)">
    <path fill="#0ec2e6" d="M20.219 21.031c-.677 0-1.219.549-1.219 1.219v8.469c0 .667.545 1.187 1.219 1.187h8.562c.674 0 1.219-.52 1.219-1.187V22.25c0-.668-.545-1.219-1.219-1.219H20.22ZM21 25h7.031v5H21v-5Z"/>
    <path fill="#e5c07b" d="m15 4.031-2 4s-7-.01-7 0c-1.173 0-2 .81-2 2v6H0l6 10h10.031V21a3 3 0 0 1 3-3h4.157L22 16.031H6v-6h8l2-4h12V18h2V6.031a2 2 0 0 0-2-2H15Z"/>
  </g>
</svg>
