<svg xmlns="http://www.w3.org/2000/svg" viewBox="0 0 32 32">
  <path fill="#d55952"
    d="M25.286 30.012h-4.27v-1.055h4.27m2.747-4.934h-6.985v-1.037h6.985m.735-1.95h-8.54a1.21 1.21 0 0 0-1.22 1.208v8.461c0 .668.546 1.208 1.22 1.208h8.54c.674 0 1.22-.54 1.22-1.208v-8.46c.001-.668-.545-1.21-1.219-1.21Zm-1.667 6.03H21V25.98h6.1" />
  <path fill="#e5c07b"
    d="M15 4.031 12.969 8S6 8.02 6 8.031c-1.172 0-2.031.81-2.031 2L4 24c0 1.194.821 2.031 2.031 2.031h10V21a3 3 0 0 1 3-3H30V6a1.987 1.987 0 0 0-.594-1.406A1.957 1.957 0 0 0 28 4.03H15Zm1 2h12V8H15l1-1.969Z" />
</svg>
