<svg stroke-miterlimit="10" viewBox="0 0 32 32" xmlns="http://www.w3.org/2000/svg" clip-rule="evenodd"
  stroke-linecap="round" stroke-linejoin="round">
  <clipPath id="prefix__a">
    <path d="M0 0h32v32H0z" />
  </clipPath>
  <g clip-path="url(#prefix__a)">
    <path
      d="M19.85 21a.785.785 0 00-.788.782v7.06c0 .431.353.781.788.781h.788V23.37c0-.432.352-.782.787-.782h6.302v-.806a.785.785 0 00-.788-.782H19.85z"
      fill="#b5485c" />
    <path
      d="M23.113 24.208h6.28c.385 0 .697.312.697.697v6.28a.696.696 0 01-.697.697h-6.28a.696.696 0 01-.697-.697v-6.28c0-.385.312-.697.697-.697z"
      fill="#e65c75" />
    <path
      d="M15 4.031L12.969 8S6 8.02 6 8.031c-1.172 0-2.031.81-2.031 2L4 24c0 1.194.821 2.031 2.031 2.031h10V21a3 3 0 013-3H30V6a1.987 1.987 0 00-.594-1.406A1.957 1.957 0 0028 4.03H15zm1 2h12V8H15l1-1.969z"
      fill="#e5c07b" />
  </g>
</svg>
