<svg stroke-miterlimit="10" viewBox="0 0 32 32" xmlns="http://www.w3.org/2000/svg" clip-rule="evenodd"
  stroke-linecap="round" stroke-linejoin="round">
  <path
    d="M15 4.031L12.969 8S6 8.02 6 8.031c-1.172 0-2.031.81-2.031 2L4 24c0 1.194.821 2.031 2.031 2.031h10V21a3 3 0 013-3H30V6a1.987 1.987 0 00-.594-1.406A1.957 1.957 0 0028 4.03H15zm1 2h12V8H15l1-1.969z"
    fill="#e5c07b" />
  <path
    d="M30.37 26.311l-.915-1.577-3.134 1.844-1.373-2.366 3.133-1.844-.916-1.577-3.133 1.844-1.005-1.6-3.134 1.843c-.895.527-1.197 1.688-.65 2.5l1.177 2.028-4.476 2.635.916 1.577 4.476-2.635 1.178 2.028c.523.902 1.676 1.206 2.483.655l3.133-1.844-.916-1.577 3.157-1.934z"
    fill="#0EC2E6" />
</svg>
