<svg xmlns="http://www.w3.org/2000/svg" xml:space="preserve" stroke-linecap="round" stroke-linejoin="round" stroke-miterlimit="10" clip-rule="evenodd" viewBox="0 0 32 32">
  <clipPath id="a">
    <path d="M0 0h32v32H0z"/>
  </clipPath>
  <g clip-path="url(#a)">
    <path fill="#88cc7e" d="M19.046 23.362v6.194l4.883 2.372v-6.194l-4.883-2.372Zm5.469-3.292L19.7 22.408l4.814 2.338 4.813-2.338-4.813-2.338Zm.586 5.664v6.194l4.883-2.372v-6.194L25.1 25.734Z"/>
    <path fill="#e5c07b" d="m15 4.031-2 4s-7-.01-7 0c-1.173 0-2 .81-2 2v6H0l6 10h10.031V21a3 3 0 0 1 3-3h4.157L22 16.031H6v-6h8l2-4h12V18h2V6.031a2 2 0 0 0-2-2H15Z"/>
  </g>
</svg>
