<svg xmlns="http://www.w3.org/2000/svg" xml:space="preserve" stroke-linecap="round" stroke-linejoin="round" stroke-miterlimit="10" clip-rule="evenodd" viewBox="0 0 32 32">
  <clipPath id="a">
    <path d="M0 0h32v32H0z"/>
  </clipPath>
  <g clip-path="url(#a)">
    <path fill="#bf98e6" d="M20.676 21.007h1.603c.907 0 1.642.735 1.642 1.641v1.567c0 .907-.735 1.642-1.642 1.642h-1.603a1.641 1.641 0 0 1-1.642-1.642v-1.567c0-.906.735-1.641 1.642-1.641Zm6.084.005h1.603c.907 0 1.641.735 1.641 1.641v1.567c0 .907-.734 1.642-1.64 1.642h-1.605a1.641 1.641 0 0 1-1.64-1.642v-1.567c0-.906.734-1.641 1.64-1.641Zm.002 5.979h1.604c.907 0 1.641.735 1.641 1.641V30.2c0 .906-.735 1.64-1.641 1.64h-1.604a1.641 1.641 0 0 1-1.64-1.64v-1.568c0-.906.734-1.641 1.64-1.641Zm-6.1.03h1.604c.906 0 1.641.736 1.641 1.642v1.568c0 .906-.735 1.64-1.641 1.64h-1.604a1.641 1.641 0 0 1-1.641-1.64v-1.568c0-.906.735-1.641 1.641-1.641Z"/>
    <path fill="#e5c07b" d="m15 4.031-2 4s-7-.01-7 0c-1.173 0-2 .81-2 2v6H0l6 10h10.031V21a3 3 0 0 1 3-3h4.157L22 16.031H6v-6h8l2-4h12V18h2V6.031a2 2 0 0 0-2-2H15Z"/>
  </g>
</svg>
