<svg stroke-miterlimit="10" viewBox="0 0 32 32" xmlns="http://www.w3.org/2000/svg" clip-rule="evenodd" stroke-linecap="round" stroke-linejoin="round"><path d="M20.063 21c-.563 0-1 .469-1 1.031v8.844c0 .563.437 1 1 1h10.843c.563 0 1.032-.437 1.032-1v-8.844A1.04 1.04 0 0030.905 21H20.063zm3.59 2.118a.257.257 0 01.407 0l.595.72a.42.42 0 010 .501l-1.817 2.192 1.817 2.192c.11.134.11.336 0 .47l-.595.72a.257.257 0 01-.407 0l-2.005-2.411-.594-.72a.42.42 0 010-.501l2.599-3.163zm3.287 0a.257.257 0 01.407 0l2.6 3.163a.42.42 0 010 .5l-2.6 3.132a.257.257 0 01-.407 0l-.595-.72a.375.375 0 010-.47l1.817-2.192-1.817-2.192a.42.42 0 010-.5l.595-.72z" fill="#88cc7e"/><path d="M15 4.031L12.969 8S6 8.02 6 8.031c-1.172 0-2.031.81-2.031 2L4 24c0 1.194.821 2.031 2.031 2.031h10V21a3 3 0 013-3H30V6a1.987 1.987 0 00-.594-1.406A1.957 1.957 0 0028 4.03H15zm1 2h12V8H15l1-1.969z" fill="#e5c07b"/></svg>
