<svg stroke-miterlimit="10" viewBox="0 0 32 32" xmlns="http://www.w3.org/2000/svg" clip-rule="evenodd"
  stroke-linecap="round" stroke-linejoin="round">
  <clipPath id="prefix__a">
    <path d="M0 0h32v32H0z" />
  </clipPath>
  <g clip-path="url(#prefix__a)">
    <path
      d="M15 4.031L12.969 8S6 8.02 6 8.031c-1.172 0-2.031.81-2.031 2L4 24c0 1.194.821 2.031 2.031 2.031h10V21a3 3 0 013-3H30V6a1.987 1.987 0 00-.594-1.406A1.957 1.957 0 0028 4.03H15zm1 2h12V8H15l1-1.969z"
      fill="#e5c07b" />
    <path d="M22.907 25.526a4.5 4.5 0 119 0 4.5 4.5 0 01-9 0z" fill="#e65c75" />
    <path
      d="M23.531 21.031a4.5 4.5 0 000 9c.365 0 .692-.105 1.032-.187-1.974-.477-3.47-2.193-3.47-4.313 0-2.12 1.496-3.836 3.47-4.312-.34-.082-.667-.188-1.032-.188z"
      fill="#b5485c" />
  </g>
</svg>
