<svg stroke-miterlimit="10" viewBox="0 0 32 32" xmlns="http://www.w3.org/2000/svg" clip-rule="evenodd"
  stroke-linecap="round" stroke-linejoin="round">
  <path
    d="M20 21a1 1 0 00-1 1v8.969a1 1 0 001 1h9.063a1 1 0 001-1V22a1 1 0 00-1-1H20zm4.531 1.188c1.762 0 2.719.93 2.719 2.718-.239.185-2 .325-2 .063.037-1.006-.442-1.063-.688-1.063-.238 0-.625.087-.625.625 0 1.328 3.407 1.23 3.407 3.907 0 1.502-1.222 2.343-2.782 2.343-1.61 0-3.001-.647-2.843-2.906.06-.266 2.093-.202 2.093 0-.023.931.213 1.219.75 1.219.41 0 .594-.242.594-.625 0-1.362-3.375-1.409-3.375-3.907 0-1.432.992-2.375 2.75-2.375z"
    fill="#e65e8c" />
  <path
    d="M15 4.031l-2 4s-7-.01-7 0c-1.173 0-2 .81-2 2v6H0l6 10h10.031V21a3 3 0 013-3h4.157L22 16.031H6v-6h8l2-4h12V18h2V6.031a2 2 0 00-2-2H15z"
    fill="#e5c07b" />
</svg>
