<svg stroke-miterlimit="10" viewBox="0 0 32 32" xmlns="http://www.w3.org/2000/svg" clip-rule="evenodd"
  stroke-linecap="round" stroke-linejoin="round">
  <g fill="#88cc7e">
    <path
      d="M19.517 20.998h6.018a.5.5 0 01.5.5v1.001a.5.5 0 01-.5.5h-6.018a.5.5 0 01-.5-.5v-1.001a.5.5 0 01.5-.5zM19.526 25.032h9.996a.5.5 0 01.5.5v1.002a.5.5 0 01-.5.5h-9.996a.5.5 0 01-.5-.5v-1.002a.5.5 0 01.5-.5zM19.494 29.013h9.003a.5.5 0 01.5.5v1.002a.5.5 0 01-.5.5h-9.003a.5.5 0 01-.5-.5v-1.002a.5.5 0 01.5-.5z" />
  </g>
  <path
    d="M15 4.031l-2 4s-7-.01-7 0c-1.173 0-2 .81-2 2v6H0l6 10h10.031V21a3 3 0 013-3h4.157L22 16.031H6v-6h8l2-4h12V18h2V6.031a2 2 0 00-2-2H15z"
    fill="#e5c07b" />
</svg>
