<svg stroke-miterlimit="10" viewBox="0 0 32 32" xmlns="http://www.w3.org/2000/svg" clip-rule="evenodd"
  stroke-linecap="round" stroke-linejoin="round">
  <path
    d="M15 4.031L12.969 8S6 8.02 6 8.031c-1.172 0-2.031.81-2.031 2L4 24c0 1.194.821 2.031 2.031 2.031h10V21a3 3 0 013-3H30V6a1.987 1.987 0 00-.594-1.406A1.957 1.957 0 0028 4.03H15zm1 2h12V8H15l1-1.969z"
    fill="#e5c07b" />
  <path
    d="M26.61 28.7h-4.265l-.8 2.249h-2.53l4.131-10.942h2.733l4.1 10.942h-2.623l-.747-2.25zm-.676-.886l-1.445-4.305-1.492 4.305h2.937z"
    fill="#e65c75" />
</svg>
