<svg xmlns="http://www.w3.org/2000/svg" xml:space="preserve" stroke-linecap="round" stroke-linejoin="round"
  stroke-miterlimit="10" clip-rule="evenodd" viewBox="0 0 32 32">
  <clipPath id="a">
    <path d="M0 0h32v32H0z" />
  </clipPath>
  <g clip-path="url(#a)">
    <path fill="#88cc7e" fill-rule="evenodd"
      d="m24.94 21.083-4.268 2.464a.515.515 0 0 0-.258.447v4.93c0 .185.098.355.258.447l4.269 2.466c.16.092.356.092.515 0l4.269-2.466a.516.516 0 0 0 .257-.446v-4.931a.515.515 0 0 0-.258-.447l-4.268-2.464a.519.519 0 0 0-.517 0" />
    <path fill="#e5c07b"
      d="m15 4.031-2 4s-7-.01-7 0c-1.173 0-2 .81-2 2v6H0l6 10h10.031V21a3 3 0 0 1 3-3h4.157L22 16.031H6v-6h8l2-4h12V18h2V6.031a2 2 0 0 0-2-2H15Z" />
  </g>
</svg>
