<svg stroke-miterlimit="10" viewBox="0 0 32 32" xmlns="http://www.w3.org/2000/svg" clip-rule="evenodd"
  stroke-linecap="round" stroke-linejoin="round">
  <clipPath id="prefix__a">
    <path d="M0 0h32v32H0z" />
  </clipPath>
  <g clip-path="url(#prefix__a)">
    <path
      d="M19.54 21.027h9.957a.5.5 0 01.5.5v2.97a.5.5 0 01-.5.5H19.54a.5.5 0 01-.5-.5v-2.97a.5.5 0 01.5-.5zm4.936 5.974h5a.5.5 0 01.5.5v2.99a.5.5 0 01-.5.5h-5a.5.5 0 01-.5-.5v-2.99a.5.5 0 01.5-.5zM19.538 27h2.021a.5.5 0 01.5.5v3.008a.5.5 0 01-.5.5h-2.021a.5.5 0 01-.5-.5v-3.008a.5.5 0 01.5-.5z"
      fill="#0ec2e6" />
    <path
      d="M15 4.031l-2 4s-7-.01-7 0c-1.173 0-2 .81-2 2v6H0l6 10h10.031V21a3 3 0 013-3h4.157L22 16.031H6v-6h8l2-4h12V18h2V6.031a2 2 0 00-2-2H15z"
      fill="#e5c07b" />
  </g>
</svg>
