<svg stroke-miterlimit="10" viewBox="0 0 32 32" xmlns="http://www.w3.org/2000/svg" clip-rule="evenodd"
  stroke-linecap="round" stroke-linejoin="round">
  <clipPath id="prefix__a">
    <path d="M0 0h32v32H0z" />
  </clipPath>
  <g clip-path="url(#prefix__a)">
    <path
      d="M15 4.031L12.969 8S6 8.02 6 8.031c-1.172 0-2.031.81-2.031 2L4 24c0 1.194.821 2.031 2.031 2.031h10V21a3 3 0 013-3H30V6a1.987 1.987 0 00-.594-1.406A1.957 1.957 0 0028 4.03H15zm1 2h12V8H15l1-1.969z"
      fill="#e5c07b" />
    <path
      d="M24.291 29.816l-.846 1.026a.352.352 0 01-.564 0l-3.677-4.458a.559.559 0 010-.684l.846-1.026a.352.352 0 01.564 0l3.677 4.458a.559.559 0 010 .684zm-.833-8.573l.846 1.025a.559.559 0 010 .684l-3.677 4.458a.352.352 0 01-.564 0l-.846-1.026a.559.559 0 010-.683l3.677-4.458a.352.352 0 01.564 0zm3.24 1.025l.845-1.025a.352.352 0 01.564 0l3.677 4.458a.559.559 0 010 .683l-.846 1.026a.352.352 0 01-.564 0l-3.677-4.458a.559.559 0 010-.684zm.833 8.574l-.846-1.026a.559.559 0 010-.684l3.677-4.458a.352.352 0 01.564 0l.845 1.026a.559.559 0 010 .684l-3.676 4.458a.352.352 0 01-.564 0z"
      fill="#88cc7e" />
  </g>
</svg>
