<svg stroke-miterlimit="10" viewBox="0 0 32 32" xmlns="http://www.w3.org/2000/svg" clip-rule="evenodd" stroke-linecap="round" stroke-linejoin="round"><path d="M15 4.031L12.969 8S6 8.02 6 8.031c-1.172 0-2.031.81-2.031 2L4 24c0 1.194.821 2.031 2.031 2.031h10V21a3 3 0 013-3H30V6a1.987 1.987 0 00-.594-1.406A1.957 1.957 0 0028 4.03H15zm1 2h12V8H15l1-1.969z" fill="#e5c07b"/><g fill="#e65cb8"><path d="M21.043 20.99h1.92v10.983h-1.92V20.989z"/><path d="M30.02 28.03l.005 1.922-11.013.026-.005-1.922 11.012-.026zM30.02 23.03l.005 1.922-11.013.026-.005-1.922 11.012-.026z"/><path d="M26.043 20.99h1.92v10.983h-1.92V20.989z"/></g></svg>
