<svg stroke-miterlimit="10" viewBox="0 0 32 32" xmlns="http://www.w3.org/2000/svg" clip-rule="evenodd"
  stroke-linecap="round" stroke-linejoin="round">
  <clipPath id="prefix__a">
    <path d="M0 0h32v32H0z" />
  </clipPath>
  <g clip-path="url(#prefix__a)">
    <path
      d="M26.323 29.51l1.308 1.498 4.361-4.995-4.36-4.996-1.31 1.5 3.055 3.496-3.054 3.496zm-1.636-6.993l-1.309-1.5-4.36 4.996 4.36 4.996 1.309-1.499-3.054-3.497 3.054-3.496z"
      fill="#88cc7e" />
    <path
      d="M15 4.031l-2 4s-7-.01-7 0c-1.173 0-2 .81-2 2v6H0l6 10h10.031V21a3 3 0 013-3h4.157L22 16.031H6v-6h8l2-4h12V18h2V6.031a2 2 0 00-2-2H15z"
      fill="#e5c07b" />
  </g>
</svg>
