<svg xmlns="http://www.w3.org/2000/svg" xml:space="preserve" stroke-linecap="round" stroke-linejoin="round" stroke-miterlimit="10" clip-rule="evenodd" viewBox="0 0 32 32">
  <clipPath id="a">
    <path d="M0 0h32v32H0z"/>
  </clipPath>
  <g clip-path="url(#a)">
    <path fill="#2196f3" d="M20.219 21.031c-.677 0-1.219.549-1.219 1.219v8.469c0 .667.545 1.187 1.219 1.187h8.562c.674 0 1.219-.52 1.219-1.187V22.25c0-.668-.545-1.219-1.219-1.219H20.22ZM21 25h7.031v5H21v-5Z"/>
    <path fill="#e5c07b" d="M15 4.031 12.969 8S6 8.02 6 8.031c-1.172 0-2.031.81-2.031 2L4 24c0 1.194.821 2.031 2.031 2.031h10V21a3 3 0 0 1 3-3H30V6a1.987 1.987 0 0 0-.594-1.406A1.957 1.957 0 0 0 28 4.03H15Zm1 2h12V8H15l1-1.969Z"/>
  </g>
</svg>
