<svg stroke-miterlimit="10" viewBox="0 0 32 32" xmlns="http://www.w3.org/2000/svg" clip-rule="evenodd"
  stroke-linecap="round" stroke-linejoin="round">
  <path
    d="M15 4.031L12.969 8S6 8.02 6 8.031c-1.172 0-2.031.81-2.031 2L4 24c0 1.194.821 2.031 2.031 2.031h10V21a3 3 0 013-3H30V6a1.987 1.987 0 00-.594-1.406A1.957 1.957 0 0028 4.03H15zm1 2h12V8H15l1-1.969z"
    fill="#e5c07b" />
  <path
    d="M22.473 31.22c.25-.027.405-.07.465-.13a.308.308 0 00.088-.227v-7.39h-3.399c-.105 0-.184.036-.237.108-.052.073-.092.22-.118.445h-.237v-3.518h.237c.026.224.066.372.118.445.053.072.132.109.237.109h9.763c.105 0 .184-.037.237-.11.053-.072.092-.22.118-.444h.238v3.518h-.238c-.026-.224-.065-.372-.118-.445-.053-.072-.132-.108-.237-.108h-3.4v7.39c0 .093.03.168.09.228.059.059.214.102.464.128v.237h-4.07v-.237z"
    fill="#e65c75" />
</svg>
