<svg stroke-miterlimit="10" viewBox="0 0 32 32" xmlns="http://www.w3.org/2000/svg" clip-rule="evenodd"
  stroke-linecap="round" stroke-linejoin="round">
  <path
    d="M20.219 21.031c-.677 0-1.219.549-1.219 1.219v8.469c0 .667.545 1.187 1.219 1.187h8.562c.674 0 1.219-.52 1.219-1.187V22.25c0-.668-.545-1.219-1.219-1.219H20.22zm5.906 3.994L29 30h-8.969l2.25-3.762 1.594 2.508 2.25-3.721z"
    fill="#e65c75" />
  <path
    d="M15 4.031L12.969 8S6 8.02 6 8.031c-1.172 0-2.031.81-2.031 2L4 24c0 1.194.821 2.031 2.031 2.031h10V21a3 3 0 013-3H30V6a1.987 1.987 0 00-.594-1.406A1.957 1.957 0 0028 4.03H15zm1 2h12V8H15l1-1.969z"
    fill="#e5c07b" />
</svg>
