<svg stroke-miterlimit="10" viewBox="0 0 32 32" xmlns="http://www.w3.org/2000/svg" clip-rule="evenodd"
  stroke-linecap="round" stroke-linejoin="round">
  <clipPath id="prefix__a">
    <path d="M0 0h32v32H0z" />
  </clipPath>
  <g clip-path="url(#prefix__a)">
    <path
      d="M24.497 21.04a5.448 5.448 0 000 10.895.908.908 0 00.909-.908.889.889 0 00-.237-.606.908.908 0 01.678-1.513h1.072a3.026 3.026 0 003.026-3.026c0-2.676-2.44-4.843-5.448-4.843z"
      fill="#e65cb8" />
    <path
      d="M15 4.031L12.969 8S6 8.02 6 8.031c-1.172 0-2.031.81-2.031 2L4 24c0 1.194.821 2.031 2.031 2.031h10V21a3 3 0 013-3H30V6a1.987 1.987 0 00-.594-1.406A1.957 1.957 0 0028 4.03H15zm1 2h12V8H15l1-1.969z"
      fill="#e5c07b" />
  </g>
</svg>
