<svg stroke-miterlimit="10" viewBox="0 0 32 32" xmlns="http://www.w3.org/2000/svg" clip-rule="evenodd"
  stroke-linecap="round" stroke-linejoin="round">
  <clipPath id="prefix__a">
    <path d="M0 0h32v32H0z" />
  </clipPath>
  <g clip-path="url(#prefix__a)">
    <path
      d="M15 4.031L12.969 8S6 8.02 6 8.031c-1.172 0-2.031.81-2.031 2L4 24c0 1.194.821 2.031 2.031 2.031h10V21a3 3 0 013-3H30V6a1.987 1.987 0 00-.594-1.406A1.957 1.957 0 0028 4.03H15zm1 2h12V8H15l1-1.969z"
      fill="#e5c07b" />
    <path
      d="M27.884 24.004c0-.828-.652-1.48-1.48-1.48-.829 0-1.48.652-1.48 1.48 0 .54.3 1.019.732 1.274v.223c-.016.382-.176.716-.462 1.018a1.478 1.478 0 01-1.018.462c-.622.016-1.1.111-1.48.334v-3.518c.429-.255.732-.716.732-1.273 0-.829-.652-1.48-1.48-1.48s-1.472.65-1.472 1.477c0 .541.302 1.02.733 1.274v4.859c-.43.255-.733.733-.733 1.274 0 .828.652 1.48 1.48 1.48.829 0 1.48-.652 1.48-1.48 0-.4-.143-.733-.398-1.003.062-.048.35-.302.429-.35.19-.08.413-.128.7-.128.78-.032 1.45-.334 2.04-.923.59-.59.891-1.466.924-2.23h-.017c.466-.288.77-.75.77-1.29zm-5.91-2.373c.494 0 .892.413.892.89a.91.91 0 01-.892.892.91.91 0 01-.89-.892.91.91 0 01.89-.89zm0 9.174a.899.899 0 01-.89-.892.91.91 0 01.89-.89.91.91 0 01.892.89c-.017.495-.414.892-.892.892zm4.427-5.91a.899.899 0 01-.89-.891.91.91 0 01.89-.891.91.91 0 01.892.891.908.908 0 01-.892.891z"
      fill="#d55952" />
  </g>
</svg>
