<svg xmlns="http://www.w3.org/2000/svg" xml:space="preserve" stroke-linecap="round" stroke-linejoin="round" stroke-miterlimit="10" clip-rule="evenodd" viewBox="0 0 32 32">
  <clipPath id="a">
    <path d="M0 0h32v32H0z"/>
  </clipPath>
  <g clip-path="url(#a)">
    <path fill="#2196f3" d="m27.632 21.015-4.822 4.434-2.695-2.032-1.114.648 2.656 2.442-2.656 2.44 1.114.65 2.695-2.03 4.822 4.431 2.353-1.142v-8.699l-2.353-1.142Zm0 2.916v5.151l-3.418-2.576 3.418-2.575Z"/>
    <path fill="#e5c07b" d="m15 4.031-2 4s-7-.01-7 0c-1.173 0-2 .81-2 2v6H0l6 10h10.031V21a3 3 0 0 1 3-3h4.157L22 16.031H6v-6h8l2-4h12V18h2V6.031a2 2 0 0 0-2-2H15Z"/>
  </g>
</svg>
