<svg xmlns="http://www.w3.org/2000/svg" xml:space="preserve" stroke-linecap="round" stroke-linejoin="round"
  stroke-miterlimit="10" clip-rule="evenodd" viewBox="0 0 32 32">
  <clipPath id="a">
    <path d="M0 0h32v32H0z" />
  </clipPath>
  <g clip-path="url(#a)">
    <path fill="#b7bbd4"
      d="M24.604 21.005a5.598 5.598 0 0 0-5.603 5.599 5.605 5.605 0 0 0 3.753 5.289c.294.073.25-.136.25-.278v-.97c-1.7.199-1.769-.926-1.882-1.113-.23-.393-.775-.494-.613-.681.387-.2.782.05 1.238.724.331.49.976.407 1.302.326a1.58 1.58 0 0 1 .435-.761c-1.76-.316-2.494-1.39-2.494-2.667 0-.62.204-1.189.605-1.648-.256-.758.024-1.406.061-1.503.727-.065 1.484.521 1.542.567a5.44 5.44 0 0 1 1.414-.17c.53 0 1.004.061 1.42.174.142-.108.843-.61 1.52-.55.035.097.308.73.068 1.478.406.46.612 1.035.612 1.656 0 1.28-.738 2.355-2.504 2.665.306.3.478.711.477 1.14v1.408c.01.112 0 .224.188.224a5.6 5.6 0 0 0-1.789-10.909Z" />
    <path fill="#e5c07b"
      d="M15 4.031 12.969 8S6 8.02 6 8.031c-1.172 0-2.031.81-2.031 2L4 24c0 1.194.821 2.031 2.031 2.031h10V21a3 3 0 0 1 3-3H30V6a1.987 1.987 0 0 0-.594-1.406A1.957 1.957 0 0 0 28 4.03H15Zm1 2h12V8H15l1-1.969Z" />
  </g>
</svg>
