<?xml version="1.0" encoding="UTF-8" standalone="no"?>
<!DOCTYPE svg PUBLIC "-//W3C//DTD SVG 1.1//EN" "http://www.w3.org/Graphics/SVG/1.1/DTD/svg11.dtd">
<!-- Created with Vectornator (http://vectornator.io/) -->
<svg height="100%" stroke-miterlimit="10" style="fill-rule:nonzero;clip-rule:evenodd;stroke-linecap:round;stroke-linejoin:round;" version="1.1" viewBox="0 0 32 32" width="100%" xml:space="preserve" xmlns="http://www.w3.org/2000/svg" xmlns:xlink="http://www.w3.org/1999/xlink">
<defs/>
<g id="Untitled">
<g opacity="0">
<path d="M20.2662 30.3302C20.2662 30.6331 20.539 30.8786 20.8756 30.8786L28.1883 30.8786C28.5248 30.8786 28.7977 30.6331 28.7977 30.3302C28.7977 30.2151 28.755 30.1054 28.688 30.0177L25.1413 24.4905L25.1413 22.1053L23.9225 22.1053L23.9225 24.4905L20.3759 30.0177C20.3088 30.1054 20.2662 30.2151 20.2662 30.3302M20.8756 31.9752C19.8659 31.9752 19.0474 31.2387 19.0474 30.3302C19.0474 30.0012 19.1571 29.6942 19.3521 29.4365L22.7037 24.1944L22.7037 23.2019C22.3672 23.2019 22.0943 22.9564 22.0943 22.6536L22.0943 22.1053C22.0943 21.4996 22.64 21.0086 23.3131 21.0086L25.7507 21.0086C26.4238 21.0086 26.9695 21.4996 26.9695 22.1053L26.9695 22.6536C26.9695 22.9564 26.6967 23.2019 26.3601 23.2019L26.3601 24.1944L29.7118 29.4365C29.9068 29.6942 30.0165 30.0012 30.0165 30.3302C30.0165 31.2387 29.1979 31.9752 28.1883 31.9752L20.8756 31.9752M19.9663 30.0118L23.1221 24.9457L23.4849 22.9653L23.5577 21.8619L24.7893 21.4798L25.7917 21.7965L25.8721 23.4641L26.0119 24.8635L27.6465 27.0684L29.2542 29.4428L29.6458 30.7934L27.6581 31.5148C27.6581 31.5148 21.0005 31.47 20.9739 31.47C20.9473 31.47 19.9042 30.836 19.9042 30.836L19.9663 30.0118Z" fill="#aa87cc" fill-rule="nonzero" opacity="1" stroke="none"/>
</g>
<path d="M24.4087 21.0149C21.3128 21.0137 18.8053 23.5199 18.8053 26.6133C18.8053 29.0595 20.3739 31.1388 22.5584 31.9025C22.8526 31.9763 22.8075 31.7673 22.8075 31.6245L22.8075 30.6543C21.1087 30.8534 21.0399 29.7292 20.926 29.5414C20.6956 29.1483 20.1511 29.0482 20.3138 28.8604C20.7006 28.6614 21.095 28.9105 21.5519 29.5852C21.8824 30.0747 22.5271 29.9921 22.8539 29.9107C22.9252 29.6165 23.0779 29.3536 23.2883 29.1496C21.5281 28.8341 20.7945 27.76 20.7945 26.4831C20.7945 25.8634 20.9986 25.2938 21.3992 24.8344C21.1438 24.077 21.423 23.4285 21.4605 23.3321C22.1879 23.267 22.944 23.8529 23.0028 23.8992C23.4159 23.7878 23.8879 23.729 24.4162 23.729C24.947 23.729 25.4202 23.7903 25.8371 23.903C25.9785 23.7953 26.6796 23.2921 27.3556 23.3534C27.3919 23.4498 27.6648 24.0833 27.4244 24.8306C27.83 25.2913 28.0366 25.8659 28.0366 26.4869C28.0366 27.7663 27.298 28.8416 25.5329 29.1521C25.8383 29.4524 26.0101 29.8629 26.0098 30.2913L26.0098 31.6997C26.0198 31.8123 26.0098 31.9237 26.1976 31.9237C28.4147 31.1764 30.0108 29.082 30.0108 26.6146C30.0108 23.5199 27.5021 21.0149 24.4087 21.0149Z" fill="#b7bbd4" fill-rule="nonzero" opacity="0" stroke="none"/>
<path d="M27.6321 21.0147L22.8097 25.4486L20.1148 23.4173L19.001 24.0655L21.6575 26.5066L19.001 28.9477L20.1148 29.5978L22.8097 27.5665L27.6321 31.9985L29.9846 30.8559L29.9846 22.1574L27.6321 21.0147ZM27.6321 23.9309L27.6321 29.0821L24.2138 26.5064L27.6321 23.9309Z" fill="#2196f3" fill-rule="nonzero" opacity="0" stroke="none"/>
<path d="M23.0017 20.9855L23 24.9297C23 24.9297 18.9952 29.0305 18.9615 31.8889L30.0014 31.8844C29.9906 29.0217 26 24.9606 26 24.9606L26 20.9852L23.0017 20.9855Z" fill="#e65c75" fill-rule="nonzero" opacity="0" stroke="none"/>
<path d="M24.9404 21.0833L20.6717 23.5472C20.5118 23.6394 20.4137 23.8096 20.4137 23.9936L20.4137 28.9248C20.4137 29.1089 20.5118 29.279 20.6717 29.3712L24.9407 31.837C25.1003 31.9289 25.297 31.9289 25.4564 31.837L29.7247 29.3712C29.8838 29.279 29.9821 29.1088 29.9821 28.9248L29.9821 23.9936C29.9821 23.8096 29.8838 23.6394 29.7237 23.5472L25.456 21.0833C25.376 21.0374 25.2868 21.0144 25.1976 21.0144C25.1085 21.0144 25.0193 21.0374 24.9393 21.0833" fill="#88cc7e" fill-rule="evenodd" opacity="0" stroke="none"/>
<path d="M24.9404 21.0833L20.6717 23.5472C20.5118 23.6394 20.4137 23.8096 20.4137 23.9936L20.4137 28.9248C20.4137 29.1089 20.5118 29.279 20.6717 29.3712L24.9407 31.837C25.1003 31.9289 25.297 31.9289 25.4564 31.837L29.7247 29.3712C29.8838 29.279 29.9821 29.1088 29.9821 28.9248L29.9821 23.9936C29.9821 23.8096 29.8838 23.6394 29.7237 23.5472L25.456 21.0833C25.376 21.0374 25.2868 21.0144 25.1976 21.0144C25.1085 21.0144 25.0193 21.0374 24.9393 21.0833" fill="#3e68ff" fill-rule="evenodd" opacity="0" stroke="none"/>
<path d="M20.6756 21.0068L22.2792 21.0068C23.1857 21.0068 23.9205 21.7416 23.9205 22.648L23.9205 24.2154C23.9205 25.1219 23.1857 25.8567 22.2792 25.8567L20.6756 25.8567C19.7692 25.8567 19.0343 25.1219 19.0343 24.2154L19.0343 22.648C19.0343 21.7416 19.7692 21.0068 20.6756 21.0068ZM26.7595 21.0117L28.3631 21.0117C29.2696 21.0117 30.0044 21.7465 30.0044 22.653L30.0044 24.2204C30.0044 25.1268 29.2696 25.8617 28.3631 25.8617L26.7595 25.8617C25.853 25.8617 25.1182 25.1268 25.1182 24.2204L25.1182 22.653C25.1182 21.7465 25.853 21.0117 26.7595 21.0117ZM26.7624 26.9909L28.366 26.9909C29.2725 26.9909 30.0073 27.7257 30.0073 28.6322L30.0073 30.1996C30.0073 31.106 29.2725 31.8408 28.366 31.8408L26.7624 31.8408C25.8559 31.8408 25.1211 31.106 25.1211 30.1996L25.1211 28.6322C25.1211 27.7257 25.8559 26.9909 26.7624 26.9909ZM20.6622 27.0219L22.2659 27.0219C23.1723 27.0219 23.9072 27.7567 23.9072 28.6632L23.9072 30.2306C23.9072 31.137 23.1723 31.8718 22.2659 31.8718L20.6622 31.8718C19.7558 31.8718 19.021 31.137 19.021 30.2306L19.021 28.6632C19.021 27.7567 19.7558 27.0219 20.6622 27.0219Z" fill="#bf98e6" fill-rule="nonzero" opacity="0" stroke="none"/>
<path d="M19.4309 21.0154L22.616 21.0154C22.8381 21.0154 23.0182 21.1943 23.0182 21.415L23.0182 24.6088C23.0182 24.8295 22.8381 25.0084 22.616 25.0084L19.4309 25.0084C19.2088 25.0084 19.0287 24.8295 19.0287 24.6088L19.0287 21.415C19.0287 21.1943 19.2088 21.0154 19.4309 21.0154ZM25.4413 21.0174L28.6264 21.0174C28.8485 21.0174 29.0286 21.1964 29.0286 21.4171L29.0286 24.6109C29.0286 24.8316 28.8485 25.0105 28.6264 25.0105L25.4413 25.0105C25.2191 25.0105 25.039 24.8316 25.039 24.6109L25.039 21.4171C25.039 21.1964 25.2191 21.0174 25.4413 21.0174ZM19.4019 27.0262L22.5869 27.0262C22.8091 27.0262 22.9892 27.2052 22.9892 27.4259L22.9892 30.6196C22.9892 30.8404 22.8091 31.0193 22.5869 31.0193L19.4019 31.0193C19.1797 31.0193 18.9996 30.8404 18.9996 30.6196L18.9996 27.4259C18.9996 27.2052 19.1797 27.0262 19.4019 27.0262ZM25.4383 27.0118L28.6233 27.0118C28.8455 27.0118 29.0256 27.1907 29.0256 27.4114L29.0256 30.6052C29.0256 30.8259 28.8455 31.0048 28.6233 31.0048L25.4383 31.0048C25.2161 31.0048 25.036 30.8259 25.036 30.6052L25.036 27.4114C25.036 27.1907 25.2161 27.0118 25.4383 27.0118Z" fill="#bf98e6" fill-rule="nonzero" opacity="0" stroke="none"/>
<path d="M25.286 30.0118L21.0155 30.0118L21.0155 28.9575L25.286 28.9575M28.0334 24.0227L21.0477 24.0227L21.0477 22.9864L28.0334 22.9864M28.7684 21.0356L20.2275 21.0356C19.5504 21.0356 19.0079 21.5736 19.0079 22.2438L19.0079 30.7052C19.0079 31.3725 19.554 31.9134 20.2275 31.9134L28.7684 31.9134C29.4422 31.9137 29.9886 31.3727 29.9886 30.7052L29.9886 22.2444C29.989 21.5769 29.4429 21.0356 28.7691 21.0356L28.7684 21.0356ZM27.1006 27.0653L21.0001 27.0653L21.0001 25.9795L27.1006 25.9795" fill="#0ec2e6" fill-rule="nonzero" opacity="0" stroke="none"/>
<path d="M25.286 30.0118L21.0155 30.0118L21.0155 28.9575L25.286 28.9575M28.0334 24.0227L21.0477 24.0227L21.0477 22.9864L28.0334 22.9864M28.7684 21.0356L20.2275 21.0356C19.5504 21.0356 19.0079 21.5736 19.0079 22.2438L19.0079 30.7052C19.0079 31.3725 19.554 31.9134 20.2275 31.9134L28.7684 31.9134C29.4422 31.9137 29.9886 31.3727 29.9886 30.7052L29.9886 22.2444C29.989 21.5769 29.4429 21.0356 28.7691 21.0356L28.7684 21.0356ZM27.1006 27.0653L21.0001 27.0653L21.0001 25.9795L27.1006 25.9795" fill="#d55952" fill-rule="nonzero" opacity="0" stroke="none"/>
<path d="M25.286 30.0118L21.0155 30.0118L21.0155 28.9575L25.286 28.9575M28.0334 24.0227L21.0477 24.0227L21.0477 22.9864L28.0334 22.9864M28.7684 21.0356L20.2275 21.0356C19.5504 21.0356 19.0079 21.5736 19.0079 22.2438L19.0079 30.7052C19.0079 31.3725 19.554 31.9134 20.2275 31.9134L28.7684 31.9134C29.4422 31.9137 29.9886 31.3727 29.9886 30.7052L29.9886 22.2444C29.989 21.5769 29.4429 21.0356 28.7691 21.0356L28.7684 21.0356ZM27.1006 27.0653L21.0001 27.0653L21.0001 25.9795L27.1006 25.9795" fill="#bf98e6" fill-rule="nonzero" opacity="0" stroke="none"/>
<path d="M20.2188 21.0312C19.5416 21.0312 19 21.5799 19 22.25L19 30.7188C19 31.386 19.5452 31.9062 20.2188 31.9062L28.7812 31.9062C29.4551 31.9066 30 31.3862 30 30.7188L30 22.25C30.0004 21.5825 29.4551 21.0313 28.7812 21.0312L20.2188 21.0312ZM21 25L28.0312 25L28.0312 30L21 30L21 25Z" fill="#0ec2e6" fill-rule="nonzero" opacity="0" stroke="none"/>
<g opacity="0">
<path d="M19.8502 21C19.4152 21 19.0625 21.35 19.0625 21.7817L19.0625 28.8417C19.0625 29.2734 19.4152 29.6234 19.8502 29.6234L20.6378 29.6234L20.6378 23.3696C20.6378 22.9379 20.9905 22.5879 21.4255 22.5879L27.7269 22.5879L27.7269 21.7817C27.7269 21.35 27.3743 21 26.9392 21L19.8502 21Z" fill="#b5485c" fill-rule="nonzero" opacity="1" stroke="none"/>
<path d="M23.1125 24.2081L29.3934 24.2081C29.778 24.2081 30.0898 24.5199 30.0898 24.9045L30.0898 31.1853C30.0898 31.57 29.778 31.8818 29.3934 31.8818L23.1125 31.8818C22.7279 31.8818 22.4161 31.57 22.4161 31.1853L22.4161 24.9045C22.4161 24.5199 22.7279 24.2081 23.1125 24.2081Z" fill="#e65c75" fill-rule="nonzero" opacity="1" stroke="none"/>
</g>
<g opacity="0">
<path d="M22.9071 25.5258C22.9071 23.0404 24.9219 21.0256 27.4073 21.0256C29.8927 21.0256 31.9075 23.0404 31.9075 25.5258C31.9075 28.0112 29.8927 30.026 27.4073 30.026C24.9219 30.026 22.9071 28.0112 22.9071 25.5258Z" fill="#e65c75" fill-rule="nonzero" opacity="1" stroke="none"/>
<path d="M23.5312 21.0312C21.0459 21.0313 19.0312 23.0459 19.0312 25.5312C19.0313 28.0166 21.0459 30.0312 23.5312 30.0312C23.8964 30.0312 24.2226 29.9258 24.5625 29.8438C22.5886 29.3671 21.0938 27.6515 21.0938 25.5312C21.0938 23.411 22.5886 21.6954 24.5625 21.2188C24.2226 21.1367 23.8964 21.0312 23.5312 21.0312Z" fill="#b5485c" fill-rule="nonzero" opacity="1" stroke="none"/>
</g>
<path d="M19.0463 24.0035L19.0463 29.6795L23.5207 31.8528L23.5207 26.1768L19.0463 24.0035ZM24.0577 20.0698L19.6467 22.2123L24.6874 24.6416L29.3851 22.2123L24.0577 20.0698ZM25.511 26.1768L25.511 31.8528L29.9854 29.6795L29.9854 24.0035L25.511 26.1768Z" fill="#88cc7e" fill-rule="nonzero" opacity="0" stroke="none"/>
<path d="M26.5339 29.1531L26.5339 29.1723C25.6304 29.134 24.5927 28.7769 23.8953 28.0795C23.1978 27.3821 22.8408 26.5888 22.8024 25.6661C22.8024 25.3258 22.7449 25.0622 22.6514 24.8369C22.5939 24.7434 22.2943 24.4031 22.2368 24.3288C21.9181 24.6308 21.5226 24.801 21.0505 24.801C20.0703 24.801 19.2986 24.0293 19.2986 23.0491C19.2986 22.0689 20.0703 21.2972 21.0505 21.2972C21.6904 21.2972 22.256 21.6567 22.558 22.1647L28.3073 22.1647C28.6093 21.6543 29.1749 21.2972 29.8148 21.2972C30.795 21.2972 31.5643 22.0593 31.5643 23.0395C31.5643 24.0197 30.7926 24.7914 29.8124 24.7914C29.1533 24.7914 28.6069 24.4319 28.3049 23.9238L24.1421 23.9238C24.4057 24.3744 24.5184 24.94 24.5375 25.6757C24.5567 26.1263 24.7269 26.5241 25.084 26.8812C25.441 27.2191 25.8365 27.4084 26.2894 27.4276L26.5531 27.4276C26.855 26.9171 27.4206 26.56 28.0605 26.56C29.0407 26.56 29.8124 27.3317 29.8124 28.3119C29.8124 29.2921 29.0407 30.0638 28.0605 30.0638C27.4206 30.0638 26.8742 29.7044 26.5339 29.1531Z" fill="#d3483e" fill-rule="nonzero" opacity="0" stroke="#d3483e" stroke-linecap="butt" stroke-linejoin="round" stroke-width="0.5"/>
<path d="M19.0289 25.148L29.982 25.148L29.982 27.8277L19.0289 27.8277L19.0289 25.148ZM25.8453 21.0113L25.8453 31.9644L23.1656 31.9644L23.1656 21.0113L25.8453 21.0113Z" fill="#e65c75" fill-rule="nonzero" opacity="0" stroke="none"/>
<g opacity="0">
<path d="M24.3938 21.0189L30.8671 21.0189C31.4625 21.0189 31.9452 21.5016 31.9452 22.097L31.9452 28.5704C31.9452 29.1658 31.4625 29.6484 30.8671 29.6484L24.3938 29.6484C23.7984 29.6484 23.3157 29.1658 23.3157 28.5704L23.3157 22.097C23.3157 21.5016 23.7984 21.0189 24.3938 21.0189Z" fill="#0ec2e6" fill-rule="nonzero" opacity="1" stroke="none"/>
<path d="M20.1046 21.0322C19.5092 21.0322 19.0265 21.5149 19.0265 22.1103L19.0265 28.5788C19.0265 29.1742 19.5092 29.6569 20.1046 29.6569L22.2271 29.6569C21.6317 29.6569 21.149 29.1742 21.149 28.5788L21.149 22.1103C21.149 21.5149 21.6317 21.0322 22.2271 21.0322L20.1046 21.0322Z" fill="#0ca1be" fill-rule="nonzero" opacity="1" stroke="none"/>
</g>
<path d="M24.4975 21.0394C21.4889 21.0394 19.05 23.4784 19.05 26.487C19.05 29.4956 21.4889 31.9345 24.4975 31.9345C24.999 31.9345 25.4055 31.528 25.4055 31.0266C25.4055 30.7906 25.3147 30.5787 25.1694 30.4213C25.0302 30.2579 24.9394 30.0461 24.9394 29.8161C24.9394 29.3146 25.3459 28.9081 25.8473 28.9081L26.9186 28.9081C28.5901 28.9081 29.945 27.5532 29.945 25.8817C29.945 23.2063 27.5057 21.0394 24.4975 21.0394Z" fill="#e65cb8" fill-rule="nonzero" opacity="0" stroke="none"/>
<path d="M19.5404 21.027L29.4968 21.027C29.7729 21.027 29.9968 21.2509 29.9968 21.527L29.9968 24.4968C29.9968 24.7729 29.7729 24.9968 29.4968 24.9968L19.5404 24.9968C19.2643 24.9968 19.0404 24.7729 19.0404 24.4968L19.0404 21.527C19.0404 21.2509 19.2643 21.027 19.5404 21.027ZM24.4764 27.0013L29.4763 27.0013C29.7524 27.0013 29.9763 27.2251 29.9763 27.5013L29.9763 30.4911C29.9763 30.7672 29.7524 30.9911 29.4763 30.9911L24.4764 30.9911C24.2003 30.9911 23.9764 30.7672 23.9764 30.4911L23.9764 27.5013C23.9764 27.2251 24.2003 27.0013 24.4764 27.0013ZM19.538 26.9993L21.559 26.9993C21.8351 26.9993 22.059 27.2232 22.059 27.4993L22.059 30.5066C22.059 30.7828 21.8351 31.0066 21.559 31.0066L19.538 31.0066C19.2619 31.0066 19.038 30.7828 19.038 30.5066L19.038 27.4993C19.038 27.2232 19.2619 26.9993 19.538 26.9993Z" fill="#0ec2e6" fill-rule="nonzero" opacity="0" stroke="none"/>
<path d="M29.092 30.2952C28.5302 31.0938 27.9344 31.873 27.0273 31.8859C26.1202 31.9052 25.8291 31.3771 24.8001 31.3771C23.7643 31.3771 23.4461 31.873 22.5864 31.9052C21.6996 31.9374 21.0294 31.0552 20.4607 30.2759C19.3031 28.6853 18.4163 25.7551 19.6077 23.7845C20.1967 22.8056 21.2528 22.1874 22.3968 22.168C23.2634 22.1552 24.0893 22.7283 24.6241 22.7283C25.1521 22.7283 26.154 22.0392 27.2033 22.1423C27.6433 22.1616 28.8754 22.3097 29.6675 23.4174C29.6065 23.456 28.1985 24.2417 28.212 25.871C28.2323 27.8159 30.006 28.4663 30.0263 28.4727C30.006 28.5178 29.7419 29.4001 29.092 30.2952M25.2266 19.9913C25.7207 19.4568 26.5399 19.0511 27.2168 19.0253C27.3049 19.7788 26.9867 20.5387 26.5128 21.0797C26.0457 21.6271 25.2739 22.0521 24.5157 21.9942C24.4142 21.2536 24.7933 20.4808 25.2266 19.9913Z" fill="#b7bbd4" fill-rule="nonzero" opacity="1" stroke="none"/>
<path d="M28.6788 26.4045L27.608 26.4045L27.608 25.3337L28.6788 25.3337M23.3295 26.4045L22.2598 26.4045L22.2598 25.3337L23.3306 25.3337M29.2457 23.3669L30.6467 21.9648C30.8502 21.7524 30.8502 21.4174 30.6467 21.2051C30.4344 21.0015 30.0994 21.0015 29.887 21.2051L28.3046 22.7898C27.4221 22.3556 26.4522 22.1286 25.4687 22.1259C24.4431 22.1259 23.4794 22.3728 22.6239 22.7999L21.029 21.2051C20.8206 21.0016 20.4879 21.0016 20.2795 21.2051C20.1769 21.3048 20.119 21.4418 20.119 21.5849C20.119 21.728 20.1769 21.865 20.2795 21.9648L21.6827 23.3669C20.0879 24.5436 19.0509 26.4045 19.0509 28.5437L31.8888 28.5437C31.8888 26.4045 30.818 24.5323 29.2457 23.3669" fill="#c0ca33" fill-rule="nonzero" opacity="0" stroke="none"/>
<path d="M24.4948 21.0639C21.47 21.0639 19.02 21.979 19.02 23.1088C19.02 24.2386 21.47 25.1537 24.4948 25.1537C27.5197 25.1537 29.9697 24.2386 29.9697 23.1088C29.9697 21.979 27.5197 21.0639 24.4948 21.0639M19.02 24.9798L19.02 26.5135C19.02 27.6433 21.47 28.5583 24.4948 28.5583C27.5197 28.5583 29.9697 27.6433 29.9697 26.5135L29.9697 24.9798C29.9697 26.1096 27.5197 27.0247 24.4948 27.0247C21.47 27.0247 19.02 26.1096 19.02 24.9798M19.02 28.3845L19.02 29.9181C19.02 31.0479 21.47 31.963 24.4948 31.963C27.5197 31.963 29.9697 31.0479 29.9697 29.9181L29.9697 28.3845C29.9697 29.5143 27.5197 30.4294 24.4948 30.4294C21.47 30.4294 19.02 29.5143 19.02 28.3845Z" fill="#e69770" fill-rule="nonzero" opacity="0" stroke="none"/>
<path d="M24.2911 29.8161L23.4453 30.8416C23.2896 31.0304 23.0371 31.0304 22.8814 30.8416L19.2045 26.3837C19.0488 26.1949 19.0488 25.8888 19.2045 25.7L20.0504 24.6745C20.2061 24.4857 20.4585 24.4857 20.6143 24.6745L24.2911 29.1324C24.4468 29.3212 24.4468 29.6273 24.2911 29.8161ZM23.4578 21.2429L24.3036 22.2684C24.4593 22.4572 24.4593 22.7633 24.3036 22.9521L20.6268 27.41C20.4711 27.5988 20.2186 27.5988 20.0629 27.41L19.217 26.3845C19.0613 26.1957 19.0613 25.8896 19.217 25.7008L22.8939 21.2429C23.0496 21.0541 23.3021 21.0541 23.4578 21.2429ZM26.6974 22.2684L27.5432 21.2429C27.6989 21.0541 27.9514 21.0541 28.1071 21.2429L31.7839 25.7008C31.9396 25.8896 31.9396 26.1957 31.7839 26.3845L30.9381 27.41C30.7824 27.5988 30.5299 27.5988 30.3742 27.41L26.6974 22.9521C26.5417 22.7633 26.5417 22.4572 26.6974 22.2684ZM27.5307 30.8416L26.6849 29.8161C26.5292 29.6273 26.5292 29.3212 26.6849 29.1324L30.3617 24.6745C30.5174 24.4857 30.7699 24.4857 30.9256 24.6745L31.7714 25.7C31.9271 25.8888 31.9271 26.1949 31.7714 26.3837L28.0946 30.8416C27.9389 31.0304 27.6864 31.0304 27.5307 30.8416Z" fill="#88cc7e" fill-rule="nonzero" opacity="0" stroke="none"/>
<path d="M24.7686 28.0408C23.6208 28.0408 22.6903 27.1103 22.6903 25.9625C22.6903 24.8147 23.6208 23.8842 24.7686 23.8842C25.9164 23.8842 26.8469 24.8147 26.8469 25.9625C26.8469 27.1103 25.9164 28.0408 24.7686 28.0408M29.1806 26.5384C29.2044 26.3484 29.2222 26.1584 29.2222 25.9624C29.2222 25.7665 29.2044 25.5705 29.1806 25.3686L30.4336 24.4007C30.5464 24.3116 30.5761 24.1513 30.5048 24.0207L29.3173 21.9661C29.246 21.8354 29.0857 21.782 28.955 21.8354L27.4765 22.4292C27.1677 22.1977 26.8471 21.9958 26.4729 21.8473L26.2532 20.2737C26.2295 20.1312 26.1048 20.0243 25.9563 20.0243L23.5811 20.0243C23.4326 20.0243 23.3079 20.1312 23.2842 20.2737L23.0645 21.8473C22.6904 21.9958 22.3697 22.1977 22.0609 22.4292L20.5823 21.8354C20.4517 21.782 20.2914 21.8354 20.2201 21.9661L19.0325 24.0207C18.9553 24.1513 18.991 24.3116 19.1038 24.4007L20.3567 25.3686C20.333 25.5705 20.3152 25.7665 20.3152 25.9624C20.3152 26.1584 20.333 26.3484 20.3567 26.5384L19.1038 27.5242C18.991 27.6132 18.9553 27.7736 19.0325 27.9042L20.2201 29.9588C20.2914 30.0894 20.4517 30.1369 20.5823 30.0894L22.0609 29.4897C22.3697 29.7272 22.6903 29.9291 23.0645 30.0776L23.2842 31.6511C23.3079 31.7937 23.4326 31.9005 23.5811 31.9005L25.9563 31.9005C26.1048 31.9005 26.2295 31.7937 26.2532 31.6511L26.4729 30.0776C26.847 29.9232 27.1677 29.7272 27.4765 29.4897L28.955 30.0894C29.0857 30.1369 29.246 30.0894 29.3173 29.9588L30.5048 27.9042C30.5761 27.7736 30.5464 27.6132 30.4336 27.5242L29.1806 26.5384Z" fill="#88cc7e" fill-rule="evenodd" opacity="0" stroke="none"/>
<path d="M21.7297 21.0214L19.7104 21.0214C19.3392 21.0226 19.0385 21.3233 19.0373 21.6945L19.0373 29.7762C19.0373 30.1467 19.3399 30.4493 19.7104 30.4493L21.7308 30.4493C22.102 30.4481 22.4027 30.1474 22.4039 29.7762L22.4039 21.6945C22.4027 21.3233 22.102 21.0226 21.7308 21.0214L21.7297 21.0214ZM31.1576 21.0214L29.1372 21.0214C28.766 21.0226 28.4653 21.3233 28.4641 21.6945L28.4641 29.7762C28.4641 30.1467 28.7667 30.4493 29.1372 30.4493L31.1576 30.4493C31.5288 30.4481 31.8295 30.1474 31.8307 29.7762L31.8307 21.6945C31.8295 21.3233 31.5288 21.0226 31.1576 21.0214ZM26.4437 21.0214L24.4233 21.0214C24.0521 21.0226 23.7514 21.3233 23.7502 21.6945L23.7502 29.7762C23.7502 30.1467 24.0528 30.4493 24.4233 30.4493L26.4437 30.4493C26.8149 30.4481 27.1156 30.1474 27.1168 29.7762L27.1168 21.6945C27.1156 21.3233 26.8149 21.0226 26.4437 21.0214Z" fill="#0ec2e6" fill-rule="evenodd" opacity="0" stroke="none"/>
<path d="M19.4843 21.0265L29.4914 21.0265C29.7676 21.0265 29.9914 21.2503 29.9914 21.5265L29.9914 23.4832C29.9914 23.7593 29.7676 23.9832 29.4914 23.9832L19.4843 23.9832C19.2082 23.9832 18.9843 23.7593 18.9843 23.4832L18.9843 21.5265C18.9843 21.2503 19.2082 21.0265 19.4843 21.0265ZM19.4843 25.0188L29.4914 25.0188C29.7676 25.0188 29.9914 25.2427 29.9914 25.5188L29.9914 27.4756C29.9914 27.7517 29.7676 27.9756 29.4914 27.9756L19.4843 27.9756C19.2082 27.9756 18.9843 27.7517 18.9843 27.4756L18.9843 25.5188C18.9843 25.2427 19.2082 25.0188 19.4843 25.0188ZM19.4843 29.0125L29.4914 29.0125C29.7676 29.0125 29.9914 29.2363 29.9914 29.5125L29.9914 31.4692C29.9914 31.7453 29.7676 31.9692 29.4914 31.9692L19.4843 31.9692C19.2082 31.9692 18.9843 31.7453 18.9843 31.4692L18.9843 29.5125C18.9843 29.2363 19.2082 29.0125 19.4843 29.0125Z" fill="#0ec2e6" fill-rule="nonzero" opacity="0" stroke="none"/>
<path d="M24.0103 24.0269L28.0257 24.0269L28.0257 25.0194L24.0103 25.0194L24.0103 24.0269ZM24.0187 27.0246L28.0113 27.0246L28.0113 28.0132L24.0187 28.0132L24.0187 27.0246ZM30.78 20.9959L20.1974 20.9959C19.5507 20.9959 19.0221 21.5734 19.0221 22.2784L19.0221 30.615C19.0221 31.32 19.5507 31.8965 20.1974 31.8965L30.781 31.8965C31.4266 31.8965 31.9564 31.3201 31.9564 30.614L31.9564 22.2774C31.9564 21.5734 31.4277 20.9959 30.7799 20.9959L30.78 20.9959ZM30.0103 30.961L22.0153 30.961L22.0153 22.0052L30.0103 22.0052L30.0103 30.961Z" fill="#0ec2e6" fill-rule="evenodd" opacity="0" stroke="none"/>
<path d="M19.0098 21.0021L19.0098 26.9214L21.099 24.8322L23.1882 27.2695C23.8846 27.9659 23.8846 28.6623 23.8846 28.6623L23.8846 31.8465L26.6701 31.8566L26.6701 27.9659C26.6701 27.9659 26.6701 27.2695 26.301 26.5731C25.9319 25.8767 25.2773 25.1803 25.2773 25.1803L23.1881 22.7987L24.9291 21.002M29.4556 21.002L26.3497 24.1148L26.6701 24.4839C26.6701 24.4839 27.3177 25.1803 27.6938 25.8767C27.84 26.1553 27.9236 26.4268 27.9723 26.6636L31.5447 23.0912" fill="#88cc7e" fill-rule="evenodd" opacity="0" stroke="none"/>
<path d="M19.2939 23.6811L21.0702 22.6574C21.3241 22.511 21.6486 22.5982 21.7949 22.8521L24.4482 27.4558C24.5945 27.7097 24.5073 28.0342 24.2534 28.1805L22.4772 29.2042C22.2232 29.3506 21.8988 29.2634 21.7525 29.0095L19.0991 24.4058C18.9528 24.1519 19.04 23.8275 19.2939 23.6811ZM20.8805 26.4114L30.0509 21.1261C30.3048 20.9798 30.6292 21.067 30.7756 21.3209L31.8482 23.182C31.9945 23.4359 31.9073 23.7603 31.6534 23.9067L22.483 29.192C22.2291 29.3383 21.9047 29.2511 21.7583 28.9972L20.6857 27.1361C20.5394 26.8822 20.6266 26.5578 20.8805 26.4114Z" fill="#88cc7e" fill-rule="nonzero" opacity="0" stroke="none"/>
<path d="M27.7067 29.3353C27.5632 28.894 27.1494 28.5685 26.6584 28.5685L26.1067 28.5685L26.1067 26.9134C26.1067 26.6087 25.8597 26.3617 25.555 26.3617L22.2449 26.3617L22.2449 25.2583L23.3482 25.2583C23.6529 25.2583 23.8999 25.0113 23.8999 24.7066L23.8999 23.6032L25.0034 23.6032C25.6127 23.6032 26.1067 23.1092 26.1067 22.4998L26.1067 22.2736C27.7232 22.9246 28.8653 24.508 28.8653 26.3617C28.8653 27.5092 28.4239 28.5519 27.7067 29.3354M23.8999 30.7367C21.7207 30.4664 20.038 28.6127 20.038 26.3617C20.038 26.0197 20.0822 25.6887 20.1539 25.3742L22.7966 28.0168L22.7966 28.5685C22.7966 29.1779 23.2905 29.6719 23.8999 29.6719M24.4516 20.8447C21.4047 20.8447 18.9347 23.3147 18.9347 26.3616C18.9347 29.4086 21.4047 31.8786 24.4516 31.8786C27.4985 31.8786 29.9686 29.4086 29.9686 26.3616C29.9686 23.3147 27.4985 20.8447 24.4516 20.8447Z" fill="#0ec2e6" fill-rule="evenodd" opacity="0" stroke="none"/>
<path d="M20.0749 21.0013L30.9163 21.0013C31.479 21.0013 31.9351 21.4575 31.9351 22.0201L31.9351 30.8641C31.9351 31.4268 31.479 31.8829 30.9163 31.8829L20.0749 31.8829C19.5123 31.8829 19.0561 31.4268 19.0561 30.8641L19.0561 22.0201C19.0561 21.4575 19.5123 21.0013 20.0749 21.0013Z" fill="#bf98e6" fill-rule="nonzero" opacity="0" stroke="none"/>
<path d="M20.0749 21.0013L30.9163 21.0013C31.479 21.0013 31.9351 21.4575 31.9351 22.0201L31.9351 30.8641C31.9351 31.4268 31.479 31.8829 30.9163 31.8829L20.0749 31.8829C19.5123 31.8829 19.0561 31.4268 19.0561 30.8641L19.0561 22.0201C19.0561 21.4575 19.5123 21.0013 20.0749 21.0013Z" fill="#bf98e6" fill-rule="nonzero" opacity="0" stroke="none"/>
<path d="M20 21C19.4449 21 19 21.4494 19 22L19 30.9688C19 31.5194 19.4448 31.9688 20 31.9688L29.0625 31.9688C29.6177 31.9688 30.0625 31.5194 30.0625 30.9688L30.0625 22C30.0625 21.4494 29.6177 21 29.0625 21L20 21ZM23.6562 22.9688L25.4062 22.9688L25.4062 25.625L28.0625 25.625L28.0625 27.3438L25.4062 27.3438L25.4062 30.0312L23.6562 30.0312L23.6562 27.3438L21 27.3438L21 25.625L23.6562 25.625L23.6562 22.9688Z" fill="#e65c75" fill-rule="nonzero" opacity="0" stroke="none"/>
<g opacity="0">
<path d="M19.5172 20.998L25.5349 20.998C25.811 20.998 26.0349 21.2219 26.0349 21.498L26.0349 22.4994C26.0349 22.7756 25.811 22.9994 25.5349 22.9994L19.5172 22.9994C19.241 22.9994 19.0172 22.7756 19.0172 22.4994L19.0172 21.498C19.0172 21.2219 19.241 20.998 19.5172 20.998Z" fill="#88cc7e" fill-rule="nonzero" opacity="1" stroke="none"/>
<path d="M19.5262 25.0324L29.522 25.0324C29.7981 25.0324 30.022 25.2563 30.022 25.5324L30.022 26.5338C30.022 26.81 29.7981 27.0338 29.522 27.0338L19.5262 27.0338C19.25 27.0338 19.0262 26.81 19.0262 26.5338L19.0262 25.5324C19.0262 25.2563 19.25 25.0324 19.5262 25.0324Z" fill="#88cc7e" fill-rule="nonzero" opacity="1" stroke="none"/>
<path d="M19.4944 29.0133L28.497 29.0133C28.7731 29.0133 28.997 29.2372 28.997 29.5133L28.997 30.5147C28.997 30.7909 28.7731 31.0147 28.497 31.0147L19.4944 31.0147C19.2182 31.0147 18.9944 30.7909 18.9944 30.5147L18.9944 29.5133C18.9944 29.2372 19.2182 29.0133 19.4944 29.0133Z" fill="#88cc7e" fill-rule="nonzero" opacity="1" stroke="none"/>
</g>
<path d="M20.0625 21C19.4998 21 19.0625 21.4686 19.0625 22.0312L19.0625 30.875C19.0625 31.4377 19.4998 31.875 20.0625 31.875L30.9062 31.875C31.4689 31.875 31.9375 31.4377 31.9375 30.875L31.9375 22.0312C31.9375 21.4686 31.4689 21 30.9062 21L20.0625 21ZM23.6525 23.1182C23.7629 22.9844 23.9493 22.9844 24.0596 23.1182L24.6546 23.8384C24.7649 23.9721 24.7649 24.2056 24.6546 24.3394L22.8384 26.5313L24.6546 28.7232C24.7649 28.8569 24.7649 29.0591 24.6546 29.1929L24.0596 29.9131C23.9493 30.0468 23.7629 30.0468 23.6525 29.9131L21.6485 27.502L21.0536 26.7818C20.9433 26.648 20.9433 26.4145 21.0536 26.2808L23.6525 23.1182ZM26.9404 23.1182C27.0507 22.9844 27.2371 22.9844 27.3475 23.1182L29.9464 26.2808C30.0567 26.4145 30.0567 26.648 29.9464 26.7818L27.3475 29.9131C27.2371 30.0468 27.0507 30.0468 26.9404 29.9131L26.3454 29.1929C26.2351 29.0591 26.2351 28.8569 26.3454 28.7232L28.1616 26.5313L26.3454 24.3394C26.2351 24.2056 26.2351 23.9721 26.3454 23.8384L26.9404 23.1182Z" fill="#88cc7e" fill-rule="nonzero" opacity="0" stroke="none"/>
<path d="M26.0933 28.9341L27.0078 29.9818L30.0559 26.4905L27.0078 22.9988L26.0933 24.047L28.2276 26.4905L26.0933 28.9341ZM24.95 24.047L24.0354 22.9988L20.9874 26.4905L24.0354 29.9823L24.95 28.9346L22.8156 26.4905L24.95 24.047Z" fill="#88cc7e" fill-rule="nonzero" opacity="0" stroke="none"/>
<path d="M20 21C19.4449 21 19 21.4494 19 22L19 30.9688C19 31.5194 19.4448 31.9688 20 31.9688L29.0625 31.9688C29.6177 31.9688 30.0625 31.5194 30.0625 30.9688L30.0625 22C30.0625 21.4494 29.6177 21 29.0625 21L20 21ZM24.5312 22.1875C26.2929 22.1875 27.25 23.1177 27.25 24.9062C27.0113 25.0912 25.25 25.231 25.25 24.9688C25.287 23.9635 24.8079 23.9062 24.5625 23.9062C24.3238 23.9062 23.9375 23.9933 23.9375 24.5312C23.9375 25.8593 27.3438 25.7613 27.3438 28.4375C27.3438 29.9403 26.1225 30.7812 24.5625 30.7812C22.9521 30.7813 21.5607 30.1343 21.7188 27.875C21.7793 27.6094 23.8125 27.6733 23.8125 27.875C23.789 28.8063 24.0246 29.0938 24.5625 29.0938C24.9727 29.0937 25.1562 28.852 25.1562 28.4688C25.1562 27.1071 21.7812 27.0605 21.7812 24.5625C21.7813 23.1303 22.7729 22.1875 24.5312 22.1875Z" fill="#e65e8c" fill-rule="nonzero" opacity="0" stroke="none"/>
<g opacity="0">
<path d="M21.0425 20.9893L22.9639 20.9893L22.9639 31.9727L21.0425 31.9727L21.0425 20.9893Z" fill="#e65cb8" fill-rule="nonzero" opacity="1" stroke="none"/>
<path d="M30.0195 28.0303L30.0251 29.9517L19.0124 29.9779L19.0068 28.0565L30.0195 28.0303Z" fill="#e65cb8" fill-rule="nonzero" opacity="1" stroke="none"/>
<path d="M30.0195 23.0303L30.0251 24.9517L19.0124 24.9779L19.0068 23.0565L30.0195 23.0303Z" fill="#e65cb8" fill-rule="nonzero" opacity="1" stroke="none"/>
<path d="M26.0425 20.9893L27.9639 20.9893L27.9639 31.9727L26.0425 31.9727L26.0425 20.9893Z" fill="#e65cb8" fill-rule="nonzero" opacity="1" stroke="none"/>
</g>
<path d="M26.6095 28.6994L22.3452 28.6994L21.5442 30.9486L19.0154 30.9486L23.1462 20.0069L25.8791 20.0069L29.9785 30.9486L27.3555 30.9486L26.6095 28.6994ZM25.9341 27.8139L24.4891 23.5085L22.997 27.8139L25.9341 27.8139Z" fill="#e65c75" fill-rule="nonzero" opacity="0" stroke="none"/>
<path d="M31.7696 23.7583C31.7277 23.7305 31.3792 23.4588 30.6273 23.4588C30.4317 23.4588 30.2362 23.4795 30.0412 23.5143C29.8947 22.5385 29.0796 22.0441 29.0447 22.0234L28.8427 21.9047L28.7169 22.0925C28.545 22.3429 28.4244 22.6247 28.3619 22.9218C28.2225 23.4795 28.3057 24.0094 28.5917 24.4624C28.2496 24.6573 27.6926 24.7064 27.5738 24.7064L18.3949 24.7064C18.1543 24.7082 17.9607 24.9047 17.9624 25.1453C17.9624 25.9469 18.0883 26.7478 18.3671 27.501C18.6808 28.3304 19.1545 28.9435 19.7612 29.3198C20.444 29.738 21.5664 29.9749 22.8417 29.9749C23.3923 29.9749 23.9634 29.9264 24.5282 29.8219C25.3105 29.6828 26.0627 29.4092 26.7516 29.0132C27.323 28.6864 27.8344 28.2645 28.2638 27.7656C28.9957 26.9505 29.4275 26.023 29.7418 25.2221L29.8734 25.2221C30.6679 25.2221 31.163 24.9013 31.4353 24.6296C31.616 24.4618 31.7483 24.2604 31.8458 24.0229L31.9019 23.8557L31.7696 23.7589M19.2526 24.4476L20.4789 24.4476C20.5398 24.4459 20.5889 24.3969 20.5905 24.3359L20.5905 23.2355C20.5889 23.1746 20.5398 23.1255 20.4789 23.1239L19.2533 23.1239C19.2235 23.1233 19.1948 23.1349 19.1737 23.156C19.1527 23.177 19.1411 23.2057 19.1416 23.2355L19.1416 24.3366C19.1481 24.3998 19.19 24.4482 19.2533 24.4482M20.9468 24.4482L22.1731 24.4482C22.234 24.4465 22.283 24.3975 22.2847 24.3366L22.2847 23.2355C22.283 23.1746 22.234 23.1255 22.1731 23.1239L20.9468 23.1239C20.917 23.1233 20.8883 23.1349 20.8673 23.156C20.8462 23.177 20.8346 23.2057 20.8351 23.2355L20.8351 24.3366C20.8416 24.3998 20.8836 24.4482 20.9468 24.4482M22.6681 24.4482L23.8879 24.4482C23.9576 24.4482 24.006 24.3998 24.006 24.3366L24.006 23.2355C24.006 23.18 23.9641 23.1239 23.8879 23.1239L22.6675 23.1239C22.6113 23.1239 22.5629 23.1729 22.5629 23.2355L22.5629 24.3366C22.5629 24.3998 22.6049 24.4482 22.6675 24.4482M24.3681 24.4482L25.6008 24.4482C25.657 24.4482 25.706 24.3998 25.706 24.3366L25.706 23.2355C25.706 23.18 25.6641 23.1239 25.6015 23.1239L24.3681 23.1239C24.312 23.1239 24.2636 23.1729 24.2636 23.2355L24.2636 24.3366C24.2636 24.3998 24.312 24.4482 24.3681 24.4482M20.9462 22.887L22.1724 22.887C22.2286 22.887 22.2841 22.8244 22.2841 22.7618L22.2841 21.6672C22.2844 21.6375 22.2728 21.609 22.2517 21.5881C22.2307 21.5671 22.2021 21.5556 22.1724 21.5562L20.9462 21.5562C20.8829 21.5562 20.8345 21.5975 20.8345 21.6672L20.8345 22.7618C20.841 22.8244 20.8829 22.887 20.9462 22.887M22.6675 22.887L23.8873 22.887C23.957 22.887 24.0054 22.8244 24.0054 22.7618L24.0054 21.6672C24.0054 21.6046 23.9634 21.5562 23.8873 21.5562L22.6675 21.5562C22.6113 21.5562 22.5629 21.5975 22.5629 21.6672L22.5629 22.7618C22.5629 22.8244 22.6049 22.887 22.6675 22.887M24.3681 22.887L25.6008 22.887C25.657 22.887 25.706 22.8244 25.706 22.7618L25.706 21.6672C25.706 21.6046 25.657 21.5562 25.6015 21.5562L24.3681 21.5562C24.312 21.5562 24.2636 21.5975 24.2636 21.6672L24.2636 22.7618C24.2636 22.8244 24.312 22.887 24.3681 22.887M24.3681 21.298L25.6008 21.298C25.657 21.298 25.706 21.2496 25.706 21.1863L25.706 20.0995C25.706 20.0298 25.657 19.9807 25.6015 19.9807L24.3681 19.9807C24.312 19.9807 24.2636 20.0227 24.2636 20.0995L24.2636 21.1863C24.2636 21.2425 24.312 21.298 24.3681 21.298M26.0823 24.4482L27.3086 24.4482C27.3384 24.4488 27.3671 24.4372 27.3881 24.4161C27.4092 24.3951 27.4208 24.3663 27.4202 24.3366L27.4202 23.2355C27.4186 23.1748 27.3699 23.1259 27.3092 23.1239L26.0817 23.1239C26.0262 23.1239 25.9771 23.1729 25.9771 23.2355L25.9771 24.3366C25.9771 24.3992 26.0262 24.4482 26.0817 24.4482" fill="#2196f3" fill-rule="nonzero" opacity="0" stroke="none"/>
<path d="M30.3707 26.3112L29.4547 24.7339L26.3214 26.5781L24.9475 24.2122L28.0809 22.3679L27.1649 20.7906L24.0315 22.6348L23.0269 21.0341L19.8935 22.8783C18.9983 23.4053 18.6961 24.5657 19.2428 25.3778L20.4204 27.4058L15.944 30.0405L16.8599 31.6179L21.3364 28.9831L22.514 31.0112C23.0374 31.9125 24.19 32.2167 24.9966 31.6663L28.13 29.8221L27.2141 28.2447L30.3707 26.3112Z" fill="#bf98e6" fill-rule="nonzero" opacity="0" stroke="none"/>
<path d="M20.2188 21.0312C19.5416 21.0312 19 21.5799 19 22.25L19 30.7188C19 31.386 19.5452 31.9062 20.2188 31.9062L28.7812 31.9062C29.4551 31.9066 30 31.3862 30 30.7188L30 22.25C30.0004 21.5825 29.4551 21.0313 28.7812 21.0312L20.2188 21.0312ZM26.125 25.0246L29 30L20.0312 30L22.2812 26.2381L23.875 28.746L26.125 25.0246Z" fill="#e65c75" fill-rule="nonzero" opacity="0" stroke="none"/>
<path d="M24.3265 30.6278C26.6926 30.6278 28.6108 28.7096 28.6108 26.3434C28.6108 23.9773 26.6926 22.0591 24.3265 22.0591C21.9603 22.0591 20.0421 23.9773 20.0421 26.3434C20.0421 28.7096 21.9603 30.6278 24.3265 30.6278M24.3265 20.9877C27.2842 20.9877 29.6819 23.3854 29.6819 26.3432C29.6819 29.3009 27.2842 31.6986 24.3265 31.6986C21.3649 31.6986 18.971 29.2886 18.971 26.3432C18.971 23.3854 21.3687 20.9877 24.3265 20.9877M24.5942 23.6655L24.5942 26.4771L27.0042 27.907L26.6026 28.5657L23.791 26.8788L23.791 23.6655L24.5942 23.6655Z" fill="#bf98e6" fill-rule="evenodd" opacity="0" stroke="#bf98e6" stroke-linecap="butt" stroke-linejoin="round" stroke-width="0.5"/>
<path d="M15 4.03125L13 8.03125C13 8.03125 6 8.02025 6 8.03125C4.827 8.03125 4 8.84125 4 10.0312L4 16.0312L0 16.0312L6 26.0312L16.0312 26.0312L16.0312 21C16.0312 19.3431 17.3744 18 19.0312 18L23.1875 18L22 16.0312L6 16.0312L6 10.0312L14 10.0312L16 6.03125L28 6.03125L28 18L30 18L30 6.03125C30 4.92625 29.104 4.03125 28 4.03125C28 4.03125 15 4.03125 15 4.03125Z" fill="#e5c07b" fill-rule="nonzero" opacity="0" stroke="none"/>
<path d="M15 4.03125L12.9688 8C12.9688 8 6 8.02025 6 8.03125C4.828 8.03125 3.96875 8.84125 3.96875 10.0312L4 24C4 25.194 4.82125 26.0313 6.03125 26.0312L16.0312 26.0312L16.0312 21C16.0312 19.3431 17.3744 18 19.0312 18L30 18L30 6C30.0013 5.47049 29.7807 4.96817 29.4062 4.59375C29.0318 4.21933 28.5295 4.02992 28 4.03125L15 4.03125ZM16 6.03125L28 6.03125L28 8L15 8L16 6.03125Z" fill="#e5c07b" fill-rule="nonzero" opacity="1" stroke="none"/>
<path d="M28.004 4.02046C28.5335 4.01912 29.0417 4.22888 29.4162 4.60331C29.7906 4.97773 30.0003 5.48594 29.999 6.01546L29.992 24.0225C29.992 25.1795 29.168 26.0205 28.004 26.0205L28.004 6.02046L16.004 6.02046L14.994 8.01246L29.038 8.00246L28.004 26.0205L6.01701 26.0205C4.80701 26.0205 3.98601 25.2075 3.98601 24.0135L3.98001 10.0435C3.98001 8.85346 4.83401 8.01946 6.00601 8.01946C6.00601 8.00846 12.974 7.98746 12.974 7.98746L15.006 4.01946L28.006 4.01946L28.004 4.02046Z" fill="#4d9be9" fill-rule="nonzero" opacity="0" stroke="none"/>
<path d="M28.0111 4.03889C29.1151 4.03889 30.0061 4.92889 30.0061 6.03389L30.0111 24.0389C30.034 24.576 29.8306 25.0981 29.4505 25.4783C29.0703 25.8584 28.5482 26.0618 28.0111 26.0389L28.0111 6.03889L16.0111 6.03889L14.0111 10.0389L6.01108 10.0389L6.01108 16.0389L22.0111 16.0389L28.0111 26.0389L6.01108 26.0389L0.0110843 16.0389L4.01108 16.0389L4.01108 10.0389C4.01108 8.84889 4.83808 8.03889 6.01108 8.03889C6.01108 8.02789 13.0111 8.03889 13.0111 8.03889L15.0111 4.03889C15.0111 4.03889 28.0111 4.03889 28.0111 4.03889Z" fill="#4d9be9" fill-rule="nonzero" opacity="0" stroke="none"/>
<path d="M27.2095 16.0113L21.521 21.2416L18.342 18.8454L17.0282 19.6101L20.1618 22.4896L17.0282 25.3691L18.342 26.1361L21.521 23.7399L27.2095 28.9679L29.9846 27.6201L29.9846 17.3592L27.2095 16.0113ZM27.2095 19.4512L27.2095 25.5277L23.1773 22.4894L27.2095 19.4512Z" fill="#2196f3" fill-rule="nonzero" opacity="0" stroke="none"/>
<path d="M21.5063 21.1821L29.4144 25.2692C30.2287 25.6901 30.2278 26.3706 29.4122 26.7892L21.4988 30.8506C20.6833 31.2691 20.0056 30.8595 20.0064 29.9326L20.0068 22.0958C20.0076 21.169 20.692 20.7612 21.5063 21.1821Z" fill="#88cc7e" fill-rule="nonzero" opacity="0" stroke="none"/>
</g>
</svg>
