<svg stroke-miterlimit="10" viewBox="0 0 32 32" xmlns="http://www.w3.org/2000/svg" clip-rule="evenodd"
  stroke-linecap="round" stroke-linejoin="round">
  <path
    d="M20.219 21.031c-.677 0-1.219.549-1.219 1.219v8.469c0 .667.545 1.187 1.219 1.187h8.562c.674 0 1.219-.52 1.219-1.187V22.25c0-.668-.545-1.219-1.219-1.219H20.22zm5.906 3.994L29 30h-8.969l2.25-3.762 1.594 2.508 2.25-3.721z"
    fill="#e65c75" />
  <path
    d="M15 4.031l-2 4s-7-.01-7 0c-1.173 0-2 .81-2 2v6H0l6 10h10.031V21a3 3 0 013-3h4.157L22 16.031H6v-6h8l2-4h12V18h2V6.031a2 2 0 00-2-2H15z"
    fill="#e5c07b" />
</svg>
