<svg stroke-miterlimit="10" viewBox="0 0 32 32" xmlns="http://www.w3.org/2000/svg" clip-rule="evenodd"
  stroke-linecap="round" stroke-linejoin="round">
  <path
    d="M15 4.031l-2 4s-7-.01-7 0c-1.173 0-2 .81-2 2v6H0l6 10h10.031V21a3 3 0 013-3h4.157L22 16.031H6v-6h8l2-4h12V18h2V6.031a2 2 0 00-2-2H15z"
    fill="#e5c07b" />
  <path
    d="M31.77 23.758c-.042-.027-.39-.3-1.143-.3-.195 0-.39.022-.586.056-.146-.976-.961-1.47-.996-1.49l-.202-.12-.126.189c-.172.25-.293.532-.355.829-.14.558-.056 1.087.23 1.54-.342.195-.9.244-1.018.244h-9.18a.436.436 0 00-.432.44c0 .8.126 1.602.405 2.355.314.83.787 1.442 1.394 1.819.683.418 1.805.655 3.08.655.551 0 1.122-.049 1.687-.153a6.877 6.877 0 002.224-.809 5.784 5.784 0 001.512-1.247c.732-.815 1.163-1.743 1.478-2.544h.131c.795 0 1.29-.32 1.562-.592.181-.168.313-.37.41-.607l.057-.167-.132-.097m-12.517.689h1.226c.06-.002.11-.051.111-.112v-1.1a.115.115 0 00-.111-.112h-1.226a.11.11 0 00-.111.111v1.102c.006.063.048.111.111.111m1.694 0h1.226c.061-.002.11-.05.112-.111v-1.102a.115.115 0 00-.112-.111h-1.226a.109.109 0 00-.112.111v1.102c.007.063.049.111.112.111m1.721 0h1.22c.07 0 .118-.048.118-.111v-1.102a.112.112 0 00-.118-.111h-1.22c-.057 0-.105.049-.105.111v1.102c0 .063.042.111.105.111m1.7 0h1.233a.109.109 0 00.105-.111v-1.102c0-.055-.042-.111-.104-.111h-1.234c-.056 0-.104.049-.104.111v1.102c0 .063.048.111.104.111m-3.422-1.561h1.226c.057 0 .112-.063.112-.125v-1.095a.11.11 0 00-.112-.11h-1.226c-.063 0-.112.04-.112.11v1.095c.007.062.049.125.112.125m1.721 0h1.22c.07 0 .118-.063.118-.125v-1.095c0-.062-.042-.11-.118-.11h-1.22c-.056 0-.104.04-.104.11v1.095c0 .062.042.125.105.125m1.7 0h1.233c.056 0 .105-.063.105-.125v-1.095a.109.109 0 00-.104-.11h-1.234c-.056 0-.104.04-.104.11v1.095c0 .062.048.125.104.125m0-1.589h1.233a.109.109 0 00.105-.112V20.1c0-.07-.049-.118-.104-.118h-1.234c-.056 0-.104.042-.104.118v1.087c0 .056.048.112.104.112m1.714 3.15h1.227a.109.109 0 00.111-.111v-1.102a.115.115 0 00-.11-.111h-1.228c-.056 0-.105.049-.105.111v1.102c0 .062.05.111.105.111"
    fill="#2196f3" />
</svg>
