<svg stroke-miterlimit="10" viewBox="0 0 32 32" xmlns="http://www.w3.org/2000/svg" clip-rule="evenodd"
  stroke-linecap="round" stroke-linejoin="round">
  <clipPath id="prefix__a">
    <path d="M0 0h32v32H0z" />
  </clipPath>
  <g clip-path="url(#prefix__a)">
    <path
      d="M19.484 21.026h10.007a.5.5 0 01.5.5v1.957a.5.5 0 01-.5.5H19.484a.5.5 0 01-.5-.5v-1.957a.5.5 0 01.5-.5zm0 3.993h10.007a.5.5 0 01.5.5v1.957a.5.5 0 01-.5.5H19.484a.5.5 0 01-.5-.5v-1.957a.5.5 0 01.5-.5zm0 3.994h10.007a.5.5 0 01.5.5v1.956a.5.5 0 01-.5.5H19.484a.5.5 0 01-.5-.5v-1.957a.5.5 0 01.5-.5z"
      fill="#0ec2e6" />
    <path
      d="M15 4.031L12.969 8S6 8.02 6 8.031c-1.172 0-2.031.81-2.031 2L4 24c0 1.194.821 2.031 2.031 2.031h10V21a3 3 0 013-3H30V6a1.987 1.987 0 00-.594-1.406A1.957 1.957 0 0028 4.03H15zm1 2h12V8H15l1-1.969z"
      fill="#e5c07b" />
  </g>
</svg>
