<svg xmlns="http://www.w3.org/2000/svg" xml:space="preserve" stroke-linecap="round" stroke-linejoin="round" stroke-miterlimit="10" clip-rule="evenodd" viewBox="0 0 32 32">
  <clipPath id="a">
    <path d="M0 0h32v32H0z"/>
  </clipPath>
  <g clip-path="url(#a)">
    <path fill="#bf98e6" d="M20.676 21.007h1.603c.907 0 1.642.735 1.642 1.641v1.567c0 .907-.735 1.642-1.642 1.642h-1.603a1.641 1.641 0 0 1-1.642-1.642v-1.567c0-.906.735-1.641 1.642-1.641Zm6.084.005h1.603c.907 0 1.641.735 1.641 1.641v1.567c0 .907-.734 1.642-1.64 1.642h-1.605a1.641 1.641 0 0 1-1.64-1.642v-1.567c0-.906.734-1.641 1.64-1.641Zm.002 5.979h1.604c.907 0 1.641.735 1.641 1.641V30.2c0 .906-.735 1.64-1.641 1.64h-1.604a1.641 1.641 0 0 1-1.64-1.64v-1.568c0-.906.734-1.641 1.64-1.641Zm-6.1.03h1.604c.906 0 1.641.736 1.641 1.642v1.568c0 .906-.735 1.64-1.641 1.64h-1.604a1.641 1.641 0 0 1-1.641-1.64v-1.568c0-.906.735-1.641 1.641-1.641Z"/>
    <path fill="#e5c07b" d="M15 4.031 12.969 8S6 8.02 6 8.031c-1.172 0-2.031.81-2.031 2L4 24c0 1.194.821 2.031 2.031 2.031h10V21a3 3 0 0 1 3-3H30V6a1.987 1.987 0 0 0-.594-1.406A1.957 1.957 0 0 0 28 4.03H15Zm1 2h12V8H15l1-1.969Z"/>
  </g>
</svg>
