<svg stroke-miterlimit="10" viewBox="0 0 32 32" xmlns="http://www.w3.org/2000/svg" clip-rule="evenodd" stroke-linecap="round" stroke-linejoin="round"><path d="M20.063 21c-.563 0-1 .469-1 1.031v8.844c0 .563.437 1 1 1h10.843c.563 0 1.032-.437 1.032-1v-8.844A1.04 1.04 0 0030.905 21H20.063zm3.59 2.118a.257.257 0 01.407 0l.595.72a.42.42 0 010 .501l-1.817 2.192 1.817 2.192c.11.134.11.336 0 .47l-.595.72a.257.257 0 01-.407 0l-2.005-2.411-.594-.72a.42.42 0 010-.501l2.599-3.163zm3.287 0a.257.257 0 01.407 0l2.6 3.163a.42.42 0 010 .5l-2.6 3.132a.257.257 0 01-.407 0l-.595-.72a.375.375 0 010-.47l1.817-2.192-1.817-2.192a.42.42 0 010-.5l.595-.72z" fill="#88cc7e"/><path d="M15 4.031l-2 4s-7-.01-7 0c-1.173 0-2 .81-2 2v6H0l6 10h10.031V21a3 3 0 013-3h4.157L22 16.031H6v-6h8l2-4h12V18h2V6.031a2 2 0 00-2-2H15z" fill="#e5c07b"/></svg>
