<svg stroke-miterlimit="10" viewBox="0 0 32 32" xmlns="http://www.w3.org/2000/svg" clip-rule="evenodd"
  stroke-linecap="round" stroke-linejoin="round">
  <clipPath id="prefix__a">
    <path d="M0 0h32v32H0z" />
  </clipPath>
  <g clip-path="url(#prefix__a)">
    <path
      d="M19.54 21.027h9.957a.5.5 0 01.5.5v2.97a.5.5 0 01-.5.5H19.54a.5.5 0 01-.5-.5v-2.97a.5.5 0 01.5-.5zm4.936 5.974h5a.5.5 0 01.5.5v2.99a.5.5 0 01-.5.5h-5a.5.5 0 01-.5-.5v-2.99a.5.5 0 01.5-.5zM19.538 27h2.021a.5.5 0 01.5.5v3.008a.5.5 0 01-.5.5h-2.021a.5.5 0 01-.5-.5v-3.008a.5.5 0 01.5-.5z"
      fill="#0ec2e6" />
    <path
      d="M15 4.031L12.969 8S6 8.02 6 8.031c-1.172 0-2.031.81-2.031 2L4 24c0 1.194.821 2.031 2.031 2.031h10V21a3 3 0 013-3H30V6a1.987 1.987 0 00-.594-1.406A1.957 1.957 0 0028 4.03H15zm1 2h12V8H15l1-1.969z"
      fill="#e5c07b" />
  </g>
</svg>
