<svg stroke-miterlimit="10" viewBox="0 0 32 32" xmlns="http://www.w3.org/2000/svg" clip-rule="evenodd"
  stroke-linecap="round" stroke-linejoin="round">
  <clipPath id="prefix__a">
    <path d="M0 0h32v32H0z" />
  </clipPath>
  <g clip-path="url(#prefix__a)">
    <path
      d="M19.43 21.015h3.186a.4.4 0 01.402.4v3.194a.4.4 0 01-.402.4h-3.185a.4.4 0 01-.402-.4v-3.194c0-.22.18-.4.402-.4zm6.011.002h3.185c.223 0 .403.18.403.4v3.194a.4.4 0 01-.403.4h-3.185a.4.4 0 01-.402-.4v-3.194c0-.22.18-.4.402-.4zm-6.04 6.01h3.186c.222 0 .402.178.402.399v3.194c0 .22-.18.4-.402.4h-3.185a.401.401 0 01-.402-.4v-3.194c0-.22.18-.4.402-.4zm6.037-.015h3.185a.4.4 0 01.403.4v3.193a.4.4 0 01-.403.4h-3.185a.4.4 0 01-.402-.4v-3.194c0-.22.18-.4.402-.4z"
      fill="#bf98e6" />
    <path
      d="M15 4.031L12.969 8S6 8.02 6 8.031c-1.172 0-2.031.81-2.031 2L4 24c0 1.194.821 2.031 2.031 2.031h10V21a3 3 0 013-3H30V6a1.987 1.987 0 00-.594-1.406A1.957 1.957 0 0028 4.03H15zm1 2h12V8H15l1-1.969z"
      fill="#e5c07b" />
  </g>
</svg>
