<svg stroke-miterlimit="10" viewBox="0 0 32 32" xmlns="http://www.w3.org/2000/svg" clip-rule="evenodd" stroke-linecap="round" stroke-linejoin="round"><path d="M15 4.031l-2 4s-7-.01-7 0c-1.173 0-2 .81-2 2v6H0l6 10h10.031V21a3 3 0 013-3h4.157L22 16.031H6v-6h8l2-4h12V18h2V6.031a2 2 0 00-2-2H15z" fill="#e5c07b"/><g fill="#e65cb8"><path d="M21.043 20.99h1.92v10.983h-1.92V20.989z"/><path d="M30.02 28.03l.005 1.922-11.013.026-.005-1.922 11.012-.026zM30.02 23.03l.005 1.922-11.013.026-.005-1.922 11.012-.026z"/><path d="M26.043 20.99h1.92v10.983h-1.92V20.989z"/></g></svg>
