<svg viewBox="0 0 90 90" fill="none" xmlns="http://www.w3.org/2000/svg" width="500" height="500"><mask id="a" maskUnits="userSpaceOnUse" x="0" y="0" width="90" height="90"><rect width="90" height="90" rx="180" fill="#FFF"/></mask><g mask="url(#a)"><path d="M0 0h90v45H0z" fill="#b83564"/><path d="M0 45h90v45H0zM83 45a38 38 0 0 0-76 0h76z" fill="#ff6a5a"/><path d="M83 45a38 38 0 0 1-76 0h76zM77 45a32 32 0 1 0-64 0h64z" fill="#ffb350"/><path d="M77 45a32 32 0 1 1-64 0h64zM71 45a26 26 0 0 0-52 0h52z" fill="#83b8aa"/><path d="M71 45a26 26 0 0 1-52 0h52z" fill="#b83564"/><circle cx="45" cy="45" r="23" fill="#272d4d"/></g></svg>
